<svg width="187" height="52" viewBox="0 0 187 52" fill="none" xmlns="http://www.w3.org/2000/svg">
<rect width="187" height="52" rx="26" fill="#140C00"/>
<path d="M34.34 18.4545H37.3798V28.5966C37.3798 29.5341 37.1691 30.3485 36.7477 31.0398C36.331 31.7311 35.751 32.2637 35.0076 32.6378C34.2643 33.0118 33.4002 33.1989 32.4153 33.1989C31.5394 33.1989 30.7439 33.045 30.0289 32.7372C29.3187 32.4247 28.7553 31.9512 28.3386 31.3168C27.9219 30.6776 27.716 29.875 27.7207 28.9091H30.7818C30.7913 29.2926 30.8694 29.6217 31.0162 29.8963C31.1677 30.1662 31.3736 30.3745 31.6341 30.5213C31.8992 30.6634 32.2117 30.7344 32.5716 30.7344C32.9503 30.7344 33.2699 30.6539 33.5304 30.4929C33.7955 30.3272 33.9967 30.0857 34.1341 29.7685C34.2714 29.4512 34.34 29.0606 34.34 28.5966V18.4545ZM44.7946 33.2131C43.6913 33.2131 42.7373 32.9787 41.9324 32.5099C41.1322 32.0365 40.5143 31.3783 40.0787 30.5355C39.6431 29.688 39.4252 28.7055 39.4252 27.5881C39.4252 26.4612 39.6431 25.4763 40.0787 24.6335C40.5143 23.786 41.1322 23.1278 41.9324 22.6591C42.7373 22.1856 43.6913 21.9489 44.7946 21.9489C45.8978 21.9489 46.8495 22.1856 47.6497 22.6591C48.4546 23.1278 49.0749 23.786 49.5105 24.6335C49.9461 25.4763 50.1639 26.4612 50.1639 27.5881C50.1639 28.7055 49.9461 29.688 49.5105 30.5355C49.0749 31.3783 48.4546 32.0365 47.6497 32.5099C46.8495 32.9787 45.8978 33.2131 44.7946 33.2131ZM44.8088 30.8693C45.3107 30.8693 45.7297 30.7273 46.0659 30.4432C46.402 30.1544 46.6554 29.7614 46.8258 29.2642C47.001 28.767 47.0886 28.2012 47.0886 27.5668C47.0886 26.9323 47.001 26.3665 46.8258 25.8693C46.6554 25.3722 46.402 24.9792 46.0659 24.6903C45.7297 24.4015 45.3107 24.2571 44.8088 24.2571C44.3021 24.2571 43.876 24.4015 43.5304 24.6903C43.1895 24.9792 42.9314 25.3722 42.7562 25.8693C42.5858 26.3665 42.5005 26.9323 42.5005 27.5668C42.5005 28.2012 42.5858 28.767 42.7562 29.2642C42.9314 29.7614 43.1895 30.1544 43.5304 30.4432C43.876 30.7273 44.3021 30.8693 44.8088 30.8693ZM52.188 33V18.4545H55.2136V23.9233H55.3059C55.4385 23.6297 55.6303 23.3314 55.8812 23.0284C56.1369 22.7206 56.4683 22.465 56.8755 22.2614C57.2875 22.053 57.7988 21.9489 58.4096 21.9489C59.2051 21.9489 59.939 22.1572 60.6113 22.5739C61.2837 22.9858 61.8211 23.6084 62.2235 24.4418C62.626 25.2704 62.8272 26.3097 62.8272 27.5597C62.8272 28.7765 62.6307 29.804 62.2377 30.642C61.8495 31.4754 61.3192 32.1075 60.6468 32.5384C59.9792 32.9645 59.2311 33.1776 58.4025 33.1776C57.8154 33.1776 57.3159 33.0805 56.9039 32.8864C56.4967 32.6922 56.1629 32.4484 55.9025 32.1548C55.6421 31.8565 55.4432 31.5559 55.3059 31.2528H55.171V33H52.188ZM55.1497 27.5455C55.1497 28.1941 55.2396 28.7599 55.4196 29.2429C55.5995 29.7259 55.8599 30.1023 56.2008 30.3722C56.5417 30.6373 56.956 30.7699 57.4437 30.7699C57.9361 30.7699 58.3528 30.6349 58.6937 30.3651C59.0346 30.0904 59.2927 29.7116 59.4679 29.2287C59.6478 28.741 59.7377 28.1799 59.7377 27.5455C59.7377 26.9157 59.6502 26.3617 59.475 25.8835C59.2998 25.4053 59.0417 25.0312 58.7008 24.7614C58.3599 24.4915 57.9409 24.3565 57.4437 24.3565C56.9513 24.3565 56.5346 24.4867 56.1937 24.7472C55.8575 25.0076 55.5995 25.3769 55.4196 25.8551C55.2396 26.3333 55.1497 26.8968 55.1497 27.5455ZM69.5318 33V18.4545H75.3556C76.4257 18.4545 77.3182 18.6132 78.0332 18.9304C78.7482 19.2476 79.2856 19.688 79.6454 20.2514C80.0053 20.8101 80.1852 21.4541 80.1852 22.1832C80.1852 22.7514 80.0716 23.2509 79.8443 23.6818C79.617 24.108 79.3045 24.4583 78.9068 24.733C78.5138 25.0028 78.064 25.1946 77.5574 25.3082V25.4503C78.1113 25.474 78.6298 25.6302 79.1127 25.919C79.6004 26.2079 79.9958 26.6127 80.2988 27.1335C80.6019 27.6496 80.7534 28.2652 80.7534 28.9801C80.7534 29.7519 80.5616 30.4408 80.1781 31.0469C79.7993 31.6482 79.2382 32.1241 78.4949 32.4744C77.7515 32.8248 76.8353 33 75.7463 33H69.5318ZM72.6071 30.4858H75.1142C75.9712 30.4858 76.5962 30.3224 76.9892 29.9957C77.3822 29.6643 77.5787 29.224 77.5787 28.6747C77.5787 28.2723 77.4816 27.9171 77.2875 27.6094C77.0933 27.3016 76.8163 27.0601 76.4565 26.8849C76.1014 26.7098 75.6776 26.6222 75.1852 26.6222H72.6071V30.4858ZM72.6071 24.5412H74.8869C75.3083 24.5412 75.6824 24.4678 76.0091 24.321C76.3405 24.1695 76.6009 23.9564 76.7903 23.6818C76.9844 23.4072 77.0815 23.0781 77.0815 22.6946C77.0815 22.169 76.8945 21.7453 76.5204 21.4233C76.1511 21.1013 75.6255 20.9403 74.9437 20.9403H72.6071V24.5412ZM87.6266 33.2131C86.5234 33.2131 85.5693 32.9787 84.7644 32.5099C83.9642 32.0365 83.3463 31.3783 82.9107 30.5355C82.4751 29.688 82.2573 28.7055 82.2573 27.5881C82.2573 26.4612 82.4751 25.4763 82.9107 24.6335C83.3463 23.786 83.9642 23.1278 84.7644 22.6591C85.5693 22.1856 86.5234 21.9489 87.6266 21.9489C88.7298 21.9489 89.6815 22.1856 90.4817 22.6591C91.2866 23.1278 91.9069 23.786 92.3425 24.6335C92.7781 25.4763 92.9959 26.4612 92.9959 27.5881C92.9959 28.7055 92.7781 29.688 92.3425 30.5355C91.9069 31.3783 91.2866 32.0365 90.4817 32.5099C89.6815 32.9787 88.7298 33.2131 87.6266 33.2131ZM87.6408 30.8693C88.1427 30.8693 88.5617 30.7273 88.8979 30.4432C89.2341 30.1544 89.4874 29.7614 89.6578 29.2642C89.833 28.767 89.9206 28.2012 89.9206 27.5668C89.9206 26.9323 89.833 26.3665 89.6578 25.8693C89.4874 25.3722 89.2341 24.9792 88.8979 24.6903C88.5617 24.4015 88.1427 24.2571 87.6408 24.2571C87.1342 24.2571 86.708 24.4015 86.3624 24.6903C86.0215 24.9792 85.7634 25.3722 85.5882 25.8693C85.4178 26.3665 85.3326 26.9323 85.3326 27.5668C85.3326 28.2012 85.4178 28.767 85.5882 29.2642C85.7634 29.7614 86.0215 30.1544 86.3624 30.4432C86.708 30.7273 87.1342 30.8693 87.6408 30.8693ZM98.074 33.206C97.378 33.206 96.7578 33.0852 96.2132 32.8438C95.6687 32.5975 95.2379 32.2353 94.9206 31.7571C94.6081 31.2741 94.4519 30.6728 94.4519 29.9531C94.4519 29.3471 94.5632 28.8381 94.7857 28.4261C95.0082 28.0142 95.3113 27.6828 95.6948 27.4318C96.0783 27.1809 96.5139 26.9915 97.0016 26.8636C97.494 26.7358 98.0101 26.6458 98.5499 26.5938C99.1844 26.5275 99.6957 26.4659 100.084 26.4091C100.472 26.3475 100.754 26.2576 100.929 26.1392C101.104 26.0208 101.192 25.8456 101.192 25.6136V25.571C101.192 25.1212 101.05 24.7732 100.766 24.527C100.486 24.2808 100.089 24.1577 99.5726 24.1577C99.0281 24.1577 98.5949 24.2784 98.2729 24.5199C97.9509 24.7566 97.7379 25.0549 97.6337 25.4148L94.8354 25.1875C94.9775 24.5246 95.2568 23.9517 95.6735 23.4688C96.0901 22.9811 96.6275 22.607 97.2857 22.3466C97.9486 22.0814 98.7156 21.9489 99.5868 21.9489C100.193 21.9489 100.773 22.0199 101.327 22.1619C101.886 22.304 102.38 22.5241 102.811 22.8224C103.247 23.1207 103.59 23.5043 103.841 23.973C104.092 24.437 104.218 24.9934 104.218 25.642V33H101.348V31.4872H101.263C101.088 31.8281 100.853 32.1288 100.56 32.3892C100.266 32.6449 99.9135 32.8461 99.5016 32.9929C99.0897 33.1349 98.6138 33.206 98.074 33.206ZM98.9405 31.1179C99.3856 31.1179 99.7786 31.0303 100.119 30.8551C100.46 30.6752 100.728 30.4337 100.922 30.1307C101.116 29.8277 101.213 29.4844 101.213 29.1009V27.9432C101.119 28.0047 100.988 28.0616 100.823 28.1136C100.662 28.161 100.479 28.206 100.276 28.2486C100.072 28.2865 99.8685 28.322 99.665 28.3551C99.4614 28.3835 99.2767 28.4096 99.111 28.4332C98.7559 28.4853 98.4457 28.5682 98.1806 28.6818C97.9154 28.7955 97.7095 28.9493 97.5627 29.1435C97.4159 29.3329 97.3425 29.5696 97.3425 29.8537C97.3425 30.2656 97.4917 30.5805 97.79 30.7983C98.093 31.0114 98.4765 31.1179 98.9405 31.1179ZM106.565 33V22.0909H109.498V23.9943H109.612C109.811 23.3172 110.144 22.8059 110.613 22.4602C111.082 22.1098 111.622 21.9347 112.232 21.9347C112.384 21.9347 112.547 21.9441 112.722 21.9631C112.898 21.982 113.052 22.008 113.184 22.0412V24.7259C113.042 24.6832 112.846 24.6454 112.595 24.6122C112.344 24.5791 112.114 24.5625 111.906 24.5625C111.461 24.5625 111.063 24.6596 110.713 24.8537C110.367 25.0431 110.092 25.3082 109.889 25.6491C109.69 25.9901 109.59 26.383 109.59 26.8281V33H106.565ZM118.26 33.1776C117.432 33.1776 116.681 32.9645 116.009 32.5384C115.341 32.1075 114.811 31.4754 114.418 30.642C114.03 29.804 113.836 28.7765 113.836 27.5597C113.836 26.3097 114.037 25.2704 114.439 24.4418C114.842 23.6084 115.377 22.9858 116.045 22.5739C116.717 22.1572 117.453 21.9489 118.253 21.9489C118.864 21.9489 119.373 22.053 119.78 22.2614C120.192 22.465 120.524 22.7206 120.775 23.0284C121.03 23.3314 121.224 23.6297 121.357 23.9233H121.449V18.4545H124.468V33H121.485V31.2528H121.357C121.215 31.5559 121.014 31.8565 120.753 32.1548C120.498 32.4484 120.164 32.6922 119.752 32.8864C119.345 33.0805 118.848 33.1776 118.26 33.1776ZM119.219 30.7699C119.707 30.7699 120.119 30.6373 120.455 30.3722C120.796 30.1023 121.056 29.7259 121.236 29.2429C121.421 28.7599 121.513 28.1941 121.513 27.5455C121.513 26.8968 121.423 26.3333 121.243 25.8551C121.064 25.3769 120.803 25.0076 120.462 24.7472C120.121 24.4867 119.707 24.3565 119.219 24.3565C118.722 24.3565 118.303 24.4915 117.962 24.7614C117.621 25.0312 117.363 25.4053 117.188 25.8835C117.013 26.3617 116.925 26.9157 116.925 27.5455C116.925 28.1799 117.013 28.741 117.188 29.2287C117.368 29.7116 117.626 30.0904 117.962 30.3651C118.303 30.6349 118.722 30.7699 119.219 30.7699Z" fill="white"/>
<path d="M160.707 26.7071C161.098 26.3166 161.098 25.6834 160.707 25.2929L154.343 18.9289C153.953 18.5384 153.319 18.5384 152.929 18.9289C152.538 19.3195 152.538 19.9526 152.929 20.3431L158.586 26L152.929 31.6569C152.538 32.0474 152.538 32.6805 152.929 33.0711C153.319 33.4616 153.953 33.4616 154.343 33.0711L160.707 26.7071ZM135 26V27H160V26V25H135V26Z" fill="white"/>
</svg>
