<svg width="187" height="51" viewBox="0 0 187 51" fill="none" xmlns="http://www.w3.org/2000/svg">
<rect width="187" height="51" rx="25.5" fill="#FFAF47"/>
<path d="M28.6841 32.5V17.9545H31.7594V29.9645H37.9952V32.5H28.6841ZM44.9039 32.7131C43.8007 32.7131 42.8467 32.4787 42.0417 32.0099C41.2415 31.5365 40.6236 30.8783 40.188 30.0355C39.7524 29.188 39.5346 28.2055 39.5346 27.0881C39.5346 25.9612 39.7524 24.9763 40.188 24.1335C40.6236 23.286 41.2415 22.6278 42.0417 22.1591C42.8467 21.6856 43.8007 21.4489 44.9039 21.4489C46.0072 21.4489 46.9589 21.6856 47.7591 22.1591C48.564 22.6278 49.1842 23.286 49.6199 24.1335C50.0555 24.9763 50.2733 25.9612 50.2733 27.0881C50.2733 28.2055 50.0555 29.188 49.6199 30.0355C49.1842 30.8783 48.564 31.5365 47.7591 32.0099C46.9589 32.4787 46.0072 32.7131 44.9039 32.7131ZM44.9181 30.3693C45.42 30.3693 45.8391 30.2273 46.1752 29.9432C46.5114 29.6544 46.7647 29.2614 46.9352 28.7642C47.1104 28.267 47.198 27.7012 47.198 27.0668C47.198 26.4323 47.1104 25.8665 46.9352 25.3693C46.7647 24.8722 46.5114 24.4792 46.1752 24.1903C45.8391 23.9015 45.42 23.7571 44.9181 23.7571C44.4115 23.7571 43.9854 23.9015 43.6397 24.1903C43.2988 24.4792 43.0408 24.8722 42.8656 25.3693C42.6951 25.8665 42.6099 26.4323 42.6099 27.0668C42.6099 27.7012 42.6951 28.267 42.8656 28.7642C43.0408 29.2614 43.2988 29.6544 43.6397 29.9432C43.9854 30.2273 44.4115 30.3693 44.9181 30.3693ZM57.1554 36.8182C56.1752 36.8182 55.3348 36.6832 54.6341 36.4134C53.938 36.1482 53.3841 35.786 52.9721 35.3267C52.5602 34.8674 52.2927 34.3513 52.1696 33.7784L54.9679 33.402C55.0531 33.6198 55.188 33.8234 55.3727 34.0128C55.5574 34.2022 55.8012 34.3537 56.1042 34.4673C56.412 34.5857 56.786 34.6449 57.2264 34.6449C57.8845 34.6449 58.4267 34.4839 58.8528 34.1619C59.2837 33.8447 59.4991 33.312 59.4991 32.5639V30.5682H59.3713C59.2387 30.8712 59.0398 31.1577 58.7747 31.4276C58.5095 31.6974 58.1686 31.9176 57.752 32.0881C57.3353 32.2585 56.8381 32.3438 56.2605 32.3438C55.4413 32.3438 54.6956 32.1544 54.0233 31.7756C53.3556 31.392 52.823 30.8073 52.4252 30.0213C52.0323 29.2306 51.8358 28.2315 51.8358 27.0241C51.8358 25.7884 52.037 24.7562 52.4395 23.9276C52.8419 23.099 53.377 22.4787 54.0446 22.0668C54.7169 21.6548 55.4532 21.4489 56.2534 21.4489C56.8642 21.4489 57.3755 21.553 57.7875 21.7614C58.1994 21.965 58.5308 22.2206 58.7818 22.5284C59.0375 22.8314 59.234 23.1297 59.3713 23.4233H59.4849V21.5909H62.4892V32.6065C62.4892 33.5346 62.2619 34.3111 61.8074 34.9361C61.3528 35.5611 60.7231 36.0298 59.9181 36.3423C59.118 36.6596 58.197 36.8182 57.1554 36.8182ZM57.2193 30.071C57.707 30.071 58.1189 29.9503 58.4551 29.7088C58.796 29.4626 59.0564 29.1122 59.2363 28.6577C59.421 28.1984 59.5133 27.6491 59.5133 27.0099C59.5133 26.3707 59.4234 25.8168 59.2434 25.348C59.0635 24.8745 58.8031 24.5076 58.4622 24.2472C58.1213 23.9867 57.707 23.8565 57.2193 23.8565C56.7221 23.8565 56.3031 23.9915 55.9622 24.2614C55.6213 24.5265 55.3632 24.8958 55.188 25.3693C55.0128 25.8428 54.9252 26.3897 54.9252 27.0099C54.9252 27.6397 55.0128 28.1842 55.188 28.6435C55.368 29.098 55.626 29.4508 55.9622 29.7017C56.3031 29.9479 56.7221 30.071 57.2193 30.071ZM64.8968 32.5V21.5909H67.9224V32.5H64.8968ZM66.4167 20.1847C65.9669 20.1847 65.581 20.0355 65.2591 19.7372C64.9418 19.4342 64.7832 19.072 64.7832 18.6506C64.7832 18.2339 64.9418 17.8764 65.2591 17.5781C65.581 17.2751 65.9669 17.1236 66.4167 17.1236C66.8665 17.1236 67.2501 17.2751 67.5673 17.5781C67.8893 17.8764 68.0502 18.2339 68.0502 18.6506C68.0502 19.072 67.8893 19.4342 67.5673 19.7372C67.2501 20.0355 66.8665 20.1847 66.4167 20.1847ZM73.3716 26.1932V32.5H70.3461V21.5909H73.2296V23.5156H73.3574C73.5989 22.8812 74.0037 22.3793 74.5719 22.0099C75.1401 21.6359 75.829 21.4489 76.6387 21.4489C77.3962 21.4489 78.0568 21.6146 78.6202 21.946C79.1837 22.2775 79.6216 22.7509 79.9341 23.3665C80.2466 23.9773 80.4029 24.7064 80.4029 25.554V32.5H77.3773V26.0938C77.382 25.4261 77.2116 24.9053 76.8659 24.5312C76.5203 24.1525 76.0444 23.9631 75.4384 23.9631C75.0312 23.9631 74.6713 24.0507 74.3588 24.2259C74.0511 24.401 73.8096 24.6567 73.6344 24.9929C73.464 25.3243 73.3764 25.7244 73.3716 26.1932Z" fill="white"/>
<path d="M160.707 26.2071C161.098 25.8166 161.098 25.1834 160.707 24.7929L154.343 18.4289C153.953 18.0384 153.319 18.0384 152.929 18.4289C152.538 18.8195 152.538 19.4526 152.929 19.8431L158.586 25.5L152.929 31.1569C152.538 31.5474 152.538 32.1805 152.929 32.5711C153.319 32.9616 153.953 32.9616 154.343 32.5711L160.707 26.2071ZM135 25.5V26.5H160V25.5V24.5H135V25.5Z" fill="white"/>
</svg>
