<svg width="187" height="53" viewBox="0 0 187 53" fill="none" xmlns="http://www.w3.org/2000/svg">
<rect width="187" height="53" rx="26.5" fill="#F58B00"/>
<path d="M28.4634 33.5V18.9545H34.2021C35.3053 18.9545 36.2451 19.1652 37.0217 19.5866C37.7982 20.0033 38.39 20.5833 38.7972 21.3267C39.2092 22.0653 39.4151 22.9176 39.4151 23.8835C39.4151 24.8494 39.2068 25.7017 38.7901 26.4403C38.3735 27.179 37.7698 27.7543 36.979 28.1662C36.1931 28.5781 35.2414 28.7841 34.1239 28.7841H30.4663V26.3196H33.6268C34.2186 26.3196 34.7063 26.2178 35.0898 26.0142C35.4781 25.8059 35.7669 25.5194 35.9563 25.1548C36.1504 24.7855 36.2475 24.3617 36.2475 23.8835C36.2475 23.4006 36.1504 22.9792 35.9563 22.6193C35.7669 22.2547 35.4781 21.973 35.0898 21.7741C34.7016 21.5705 34.2092 21.4688 33.6126 21.4688H31.5387V33.5H28.4634ZM44.1737 33.706C43.4776 33.706 42.8574 33.5852 42.3129 33.3438C41.7683 33.0975 41.3375 32.7353 41.0202 32.2571C40.7077 31.7741 40.5515 31.1728 40.5515 30.4531C40.5515 29.8471 40.6628 29.3381 40.8853 28.9261C41.1078 28.5142 41.4109 28.1828 41.7944 27.9318C42.1779 27.6809 42.6135 27.4915 43.1012 27.3636C43.5936 27.2358 44.1097 27.1458 44.6495 27.0938C45.284 27.0275 45.7953 26.9659 46.1836 26.9091C46.5719 26.8475 46.8536 26.7576 47.0288 26.6392C47.204 26.5208 47.2915 26.3456 47.2915 26.1136V26.071C47.2915 25.6212 47.1495 25.2732 46.8654 25.027C46.5861 24.7808 46.1883 24.6577 45.6722 24.6577C45.1277 24.6577 44.6945 24.7784 44.3725 25.0199C44.0505 25.2566 43.8375 25.5549 43.7333 25.9148L40.935 25.6875C41.0771 25.0246 41.3564 24.4517 41.7731 23.9688C42.1897 23.4811 42.7272 23.107 43.3853 22.8466C44.0482 22.5814 44.8152 22.4489 45.6864 22.4489C46.2925 22.4489 46.8725 22.5199 47.4265 22.6619C47.9852 22.804 48.48 23.0241 48.9109 23.3224C49.3465 23.6207 49.6897 24.0043 49.9407 24.473C50.1916 24.937 50.3171 25.4934 50.3171 26.142V33.5H47.4478V31.9872H47.3626C47.1874 32.3281 46.953 32.6288 46.6594 32.8892C46.3659 33.1449 46.0131 33.3461 45.6012 33.4929C45.1893 33.6349 44.7134 33.706 44.1737 33.706ZM45.0401 31.6179C45.4852 31.6179 45.8782 31.5303 46.2191 31.3551C46.56 31.1752 46.8275 30.9337 47.0217 30.6307C47.2158 30.3277 47.3129 29.9844 47.3129 29.6009V28.4432C47.2182 28.5047 47.088 28.5616 46.9222 28.6136C46.7612 28.661 46.579 28.706 46.3754 28.7486C46.1718 28.7865 45.9682 28.822 45.7646 28.8551C45.561 28.8835 45.3763 28.9096 45.2106 28.9332C44.8555 28.9853 44.5453 29.0682 44.2802 29.1818C44.015 29.2955 43.8091 29.4493 43.6623 29.6435C43.5155 29.8329 43.4421 30.0696 43.4421 30.3537C43.4421 30.7656 43.5913 31.0805 43.8896 31.2983C44.1926 31.5114 44.5761 31.6179 45.0401 31.6179ZM54.1417 37.5909C53.7582 37.5909 53.3983 37.5601 53.0621 37.4986C52.7307 37.4418 52.4561 37.3684 52.2383 37.2784L52.9201 35.0199C53.2752 35.1288 53.5948 35.188 53.8789 35.1974C54.1677 35.2069 54.4163 35.1406 54.6246 34.9986C54.8377 34.8565 55.0105 34.6151 55.1431 34.2741L55.3207 33.8125L51.4073 22.5909H54.5891L56.8477 30.6023H56.9613L59.2411 22.5909H62.4442L58.2042 34.679C58.0006 35.2661 57.7236 35.7775 57.3732 36.2131C57.0276 36.6534 56.5896 36.992 56.0593 37.2287C55.529 37.4702 54.8898 37.5909 54.1417 37.5909ZM68.6126 33.7131C67.4904 33.7131 66.5245 33.4858 65.7148 33.0312C64.9099 32.572 64.2897 31.9233 63.854 31.0852C63.4184 30.2424 63.2006 29.2457 63.2006 28.0952C63.2006 26.973 63.4184 25.9882 63.854 25.1406C64.2897 24.2931 64.9028 23.6326 65.6935 23.1591C66.489 22.6856 67.4218 22.4489 68.4918 22.4489C69.2115 22.4489 69.8815 22.5649 70.5018 22.7969C71.1268 23.0241 71.6713 23.3674 72.1353 23.8267C72.604 24.286 72.9686 24.8636 73.229 25.5597C73.4895 26.2509 73.6197 27.0606 73.6197 27.9886V28.8196H64.408V26.9446H70.7717C70.7717 26.509 70.677 26.1231 70.4876 25.7869C70.2982 25.4508 70.0354 25.188 69.6992 24.9986C69.3678 24.8045 68.9819 24.7074 68.5415 24.7074C68.0823 24.7074 67.6751 24.8139 67.32 25.027C66.9696 25.2353 66.695 25.517 66.4961 25.8722C66.2972 26.2225 66.1954 26.6132 66.1907 27.044V28.8267C66.1907 29.3665 66.2901 29.8329 66.489 30.2259C66.6926 30.6188 66.979 30.9219 67.3484 31.1349C67.7177 31.348 68.1557 31.4545 68.6623 31.4545C68.9985 31.4545 69.3062 31.4072 69.5856 31.3125C69.8649 31.2178 70.104 31.0758 70.3029 30.8864C70.5018 30.697 70.6533 30.465 70.7575 30.1903L73.5558 30.375C73.4137 31.0473 73.1225 31.6345 72.6822 32.1364C72.2466 32.6335 71.6831 33.0218 70.9918 33.3011C70.3053 33.5758 69.5122 33.7131 68.6126 33.7131ZM75.5941 33.5V22.5909H78.5273V24.4943H78.641C78.8398 23.8172 79.1737 23.3059 79.6424 22.9602C80.1112 22.6098 80.6509 22.4347 81.2617 22.4347C81.4132 22.4347 81.5766 22.4441 81.7518 22.4631C81.927 22.482 82.0808 22.508 82.2134 22.5412V25.2259C82.0714 25.1832 81.8749 25.1454 81.6239 25.1122C81.373 25.0791 81.1433 25.0625 80.935 25.0625C80.4899 25.0625 80.0922 25.1596 79.7418 25.3537C79.3962 25.5431 79.1216 25.8082 78.918 26.1491C78.7191 26.4901 78.6197 26.883 78.6197 27.3281V33.5H75.5941ZM92.8544 25.7017L90.0845 25.8722C90.0372 25.6354 89.9354 25.4223 89.7791 25.233C89.6229 25.0388 89.4169 24.8849 89.1612 24.7713C88.9103 24.6529 88.6096 24.5938 88.2592 24.5938C87.7905 24.5938 87.3951 24.6932 87.0732 24.892C86.7512 25.0862 86.5902 25.3466 86.5902 25.6733C86.5902 25.9337 86.6944 26.1539 86.9027 26.3338C87.111 26.5137 87.4685 26.6581 87.9751 26.767L89.9496 27.1648C91.0102 27.3826 91.8009 27.733 92.3217 28.2159C92.8426 28.6989 93.103 29.3333 93.103 30.1193C93.103 30.8343 92.8923 31.4616 92.4709 32.0014C92.0542 32.5412 91.4813 32.9626 90.7521 33.2656C90.0277 33.5639 89.192 33.7131 88.245 33.7131C86.8009 33.7131 85.6503 33.4124 84.7933 32.8111C83.9411 32.205 83.4415 31.3812 83.2947 30.3395L86.2706 30.1832C86.3606 30.6236 86.5784 30.9598 86.924 31.1918C87.2696 31.419 87.7124 31.5327 88.2521 31.5327C88.7824 31.5327 89.2086 31.4309 89.5305 31.2273C89.8572 31.0189 90.023 30.7514 90.0277 30.4247C90.023 30.1501 89.907 29.9252 89.6797 29.75C89.4524 29.5701 89.102 29.4328 88.6286 29.3381L86.7393 28.9616C85.674 28.7486 84.8809 28.3793 84.3601 27.8537C83.844 27.3281 83.5859 26.6581 83.5859 25.8438C83.5859 25.143 83.7753 24.5393 84.1541 24.0327C84.5376 23.526 85.075 23.1354 85.7663 22.8608C86.4624 22.5862 87.2768 22.4489 88.2095 22.4489C89.5874 22.4489 90.6716 22.7401 91.4624 23.3224C92.2578 23.9048 92.7218 24.6979 92.8544 25.7017Z" fill="white"/>
<path d="M160.707 27.2071C161.098 26.8166 161.098 26.1834 160.707 25.7929L154.343 19.4289C153.953 19.0384 153.319 19.0384 152.929 19.4289C152.538 19.8195 152.538 20.4526 152.929 20.8431L158.586 26.5L152.929 32.1569C152.538 32.5474 152.538 33.1805 152.929 33.5711C153.319 33.9616 153.953 33.9616 154.343 33.5711L160.707 27.2071ZM135 26.5V27.5H160V26.5V25.5H135V26.5Z" fill="white"/>
</svg>
