<svg width="187" height="52" viewBox="0 0 187 52" fill="none" xmlns="http://www.w3.org/2000/svg">
<rect width="187" height="52" rx="26" fill="#FFCA85"/>
<path d="M28.7486 33V18.4545H34.4872C35.5857 18.4545 36.5232 18.651 37.2997 19.044C38.081 19.4323 38.6752 19.9839 39.0824 20.6989C39.4943 21.4091 39.7003 22.2448 39.7003 23.206C39.7003 24.1719 39.492 25.0028 39.0753 25.6989C38.6586 26.3902 38.0549 26.9205 37.2642 27.2898C36.4782 27.6591 35.5265 27.8438 34.4091 27.8438H30.5668V25.3722H33.9119C34.4991 25.3722 34.9867 25.2917 35.375 25.1307C35.7633 24.9697 36.0521 24.7282 36.2415 24.4062C36.4356 24.0843 36.5327 23.6842 36.5327 23.206C36.5327 22.723 36.4356 22.3158 36.2415 21.9844C36.0521 21.6529 35.7609 21.402 35.3679 21.2315C34.9796 21.0563 34.4896 20.9688 33.8977 20.9688H31.8239V33H28.7486ZM36.6037 26.3807L40.2188 33H36.8239L33.2869 26.3807H36.6037ZM46.6126 33.2131C45.4904 33.2131 44.5245 32.9858 43.7148 32.5312C42.9099 32.072 42.2897 31.4233 41.854 30.5852C41.4184 29.7424 41.2006 28.7457 41.2006 27.5952C41.2006 26.473 41.4184 25.4882 41.854 24.6406C42.2897 23.7931 42.9028 23.1326 43.6935 22.6591C44.489 22.1856 45.4218 21.9489 46.4918 21.9489C47.2115 21.9489 47.8815 22.0649 48.5018 22.2969C49.1268 22.5241 49.6713 22.8674 50.1353 23.3267C50.604 23.786 50.9686 24.3636 51.229 25.0597C51.4895 25.7509 51.6197 26.5606 51.6197 27.4886V28.3196H42.408V26.4446H48.7717C48.7717 26.009 48.677 25.6231 48.4876 25.2869C48.2982 24.9508 48.0354 24.688 47.6992 24.4986C47.3678 24.3045 46.9819 24.2074 46.5415 24.2074C46.0823 24.2074 45.6751 24.3139 45.32 24.527C44.9696 24.7353 44.695 25.017 44.4961 25.3722C44.2972 25.7225 44.1954 26.1132 44.1907 26.544V28.3267C44.1907 28.8665 44.2901 29.3329 44.489 29.7259C44.6926 30.1188 44.979 30.4219 45.3484 30.6349C45.7177 30.848 46.1557 30.9545 46.6623 30.9545C46.9985 30.9545 47.3062 30.9072 47.5856 30.8125C47.8649 30.7178 48.104 30.5758 48.3029 30.3864C48.5018 30.197 48.6533 29.965 48.7575 29.6903L51.5558 29.875C51.4137 30.5473 51.1225 31.1345 50.6822 31.6364C50.2466 32.1335 49.6831 32.5218 48.9918 32.8011C48.3053 33.0758 47.5122 33.2131 46.6126 33.2131ZM58.5089 37.3182C57.5288 37.3182 56.6883 37.1832 55.9876 36.9134C55.2915 36.6482 54.7376 36.286 54.3256 35.8267C53.9137 35.3674 53.6462 34.8513 53.5231 34.2784L56.3214 33.902C56.4066 34.1198 56.5415 34.3234 56.7262 34.5128C56.9109 34.7022 57.1547 34.8537 57.4577 34.9673C57.7655 35.0857 58.1396 35.1449 58.5799 35.1449C59.238 35.1449 59.7802 34.9839 60.2063 34.6619C60.6372 34.3447 60.8526 33.812 60.8526 33.0639V31.0682H60.7248C60.5922 31.3712 60.3933 31.6577 60.1282 31.9276C59.863 32.1974 59.5221 32.4176 59.1055 32.5881C58.6888 32.7585 58.1916 32.8438 57.614 32.8438C56.7949 32.8438 56.0491 32.6544 55.3768 32.2756C54.7092 31.892 54.1765 31.3073 53.7788 30.5213C53.3858 29.7306 53.1893 28.7315 53.1893 27.5241C53.1893 26.2884 53.3905 25.2562 53.793 24.4276C54.1954 23.599 54.7305 22.9787 55.3981 22.5668C56.0704 22.1548 56.8067 21.9489 57.6069 21.9489C58.2177 21.9489 58.729 22.053 59.141 22.2614C59.5529 22.465 59.8844 22.7206 60.1353 23.0284C60.391 23.3314 60.5875 23.6297 60.7248 23.9233H60.8384V22.0909H63.8427V33.1065C63.8427 34.0346 63.6154 34.8111 63.1609 35.4361C62.7063 36.0611 62.0766 36.5298 61.2717 36.8423C60.4715 37.1596 59.5505 37.3182 58.5089 37.3182ZM58.5728 30.571C59.0605 30.571 59.4724 30.4503 59.8086 30.2088C60.1495 29.9626 60.4099 29.6122 60.5898 29.1577C60.7745 28.6984 60.8668 28.1491 60.8668 27.5099C60.8668 26.8707 60.7769 26.3168 60.5969 25.848C60.417 25.3745 60.1566 25.0076 59.8157 24.7472C59.4748 24.4867 59.0605 24.3565 58.5728 24.3565C58.0756 24.3565 57.6566 24.4915 57.3157 24.7614C56.9748 25.0265 56.7167 25.3958 56.5415 25.8693C56.3664 26.3428 56.2788 26.8897 56.2788 27.5099C56.2788 28.1397 56.3664 28.6842 56.5415 29.1435C56.7215 29.598 56.9795 29.9508 57.3157 30.2017C57.6566 30.4479 58.0756 30.571 58.5728 30.571ZM66.2504 33V22.0909H69.2759V33H66.2504ZM67.7702 20.6847C67.3204 20.6847 66.9345 20.5355 66.6126 20.2372C66.2953 19.9342 66.1367 19.572 66.1367 19.1506C66.1367 18.7339 66.2953 18.3764 66.6126 18.0781C66.9345 17.7751 67.3204 17.6236 67.7702 17.6236C68.2201 17.6236 68.6036 17.7751 68.9208 18.0781C69.2428 18.3764 69.4038 18.7339 69.4038 19.1506C69.4038 19.572 69.2428 19.9342 68.9208 20.2372C68.6036 20.5355 68.2201 20.6847 67.7702 20.6847ZM80.7763 25.2017L78.0064 25.3722C77.959 25.1354 77.8572 24.9223 77.701 24.733C77.5447 24.5388 77.3388 24.3849 77.0831 24.2713C76.8321 24.1529 76.5315 24.0938 76.1811 24.0938C75.7124 24.0938 75.317 24.1932 74.995 24.392C74.6731 24.5862 74.5121 24.8466 74.5121 25.1733C74.5121 25.4337 74.6162 25.6539 74.8246 25.8338C75.0329 26.0137 75.3904 26.1581 75.897 26.267L77.8714 26.6648C78.9321 26.8826 79.7228 27.233 80.2436 27.7159C80.7644 28.1989 81.0249 28.8333 81.0249 29.6193C81.0249 30.3343 80.8142 30.9616 80.3928 31.5014C79.9761 32.0412 79.4032 32.4626 78.674 32.7656C77.9496 33.0639 77.1139 33.2131 76.1669 33.2131C74.7228 33.2131 73.5722 32.9124 72.7152 32.3111C71.8629 31.705 71.3634 30.8812 71.2166 29.8395L74.1925 29.6832C74.2824 30.1236 74.5002 30.4598 74.8459 30.6918C75.1915 30.919 75.6342 31.0327 76.174 31.0327C76.7043 31.0327 77.1304 30.9309 77.4524 30.7273C77.7791 30.5189 77.9448 30.2514 77.9496 29.9247C77.9448 29.6501 77.8288 29.4252 77.6016 29.25C77.3743 29.0701 77.0239 28.9328 76.5504 28.8381L74.6612 28.4616C73.5959 28.2486 72.8028 27.8793 72.282 27.3537C71.7659 26.8281 71.5078 26.1581 71.5078 25.3438C71.5078 24.643 71.6972 24.0393 72.076 23.5327C72.4595 23.026 72.9969 22.6354 73.6882 22.3608C74.3842 22.0862 75.1986 21.9489 76.1314 21.9489C77.5092 21.9489 78.5935 22.2401 79.3842 22.8224C80.1797 23.4048 80.6437 24.1979 80.7763 25.2017ZM88.7326 22.0909V24.3636H82.163V22.0909H88.7326ZM83.6545 19.4773H86.68V29.6477C86.68 29.9271 86.7227 30.1449 86.8079 30.3011C86.8931 30.4527 87.0115 30.5592 87.163 30.6207C87.3192 30.6823 87.4992 30.7131 87.7028 30.7131C87.8448 30.7131 87.9869 30.7012 88.1289 30.6776C88.271 30.6491 88.3799 30.6278 88.4556 30.6136L88.9315 32.8651C88.7799 32.9124 88.5669 32.9669 88.2923 33.0284C88.0176 33.0947 87.6838 33.1349 87.2908 33.1491C86.5617 33.1776 85.9225 33.0805 85.3732 32.858C84.8287 32.6354 84.4049 32.2898 84.1019 31.821C83.7989 31.3523 83.6497 30.7604 83.6545 30.0455V19.4773ZM95.5579 33.2131C94.4357 33.2131 93.4698 32.9858 92.6602 32.5312C91.8552 32.072 91.235 31.4233 90.7994 30.5852C90.3638 29.7424 90.146 28.7457 90.146 27.5952C90.146 26.473 90.3638 25.4882 90.7994 24.6406C91.235 23.7931 91.8481 23.1326 92.6388 22.6591C93.4343 22.1856 94.3671 21.9489 95.4371 21.9489C96.1568 21.9489 96.8268 22.0649 97.4471 22.2969C98.0721 22.5241 98.6166 22.8674 99.0806 23.3267C99.5494 23.786 99.9139 24.3636 100.174 25.0597C100.435 25.7509 100.565 26.5606 100.565 27.4886V28.3196H91.3533V26.4446H97.717C97.717 26.009 97.6223 25.6231 97.4329 25.2869C97.2435 24.9508 96.9807 24.688 96.6445 24.4986C96.3131 24.3045 95.9272 24.2074 95.4869 24.2074C95.0276 24.2074 94.6204 24.3139 94.2653 24.527C93.9149 24.7353 93.6403 25.017 93.4414 25.3722C93.2425 25.7225 93.1407 26.1132 93.136 26.544V28.3267C93.136 28.8665 93.2354 29.3329 93.4343 29.7259C93.6379 30.1188 93.9244 30.4219 94.2937 30.6349C94.663 30.848 95.101 30.9545 95.6076 30.9545C95.9438 30.9545 96.2515 30.9072 96.5309 30.8125C96.8103 30.7178 97.0494 30.5758 97.2482 30.3864C97.4471 30.197 97.5986 29.965 97.7028 29.6903L100.501 29.875C100.359 30.5473 100.068 31.1345 99.6275 31.6364C99.1919 32.1335 98.6284 32.5218 97.9371 32.8011C97.2506 33.0758 96.4575 33.2131 95.5579 33.2131ZM102.539 33V22.0909H105.473V23.9943H105.586C105.785 23.3172 106.119 22.8059 106.588 22.4602C107.056 22.1098 107.596 21.9347 108.207 21.9347C108.359 21.9347 108.522 21.9441 108.697 21.9631C108.872 21.982 109.026 22.008 109.159 22.0412V24.7259C109.017 24.6832 108.82 24.6454 108.569 24.6122C108.318 24.5791 108.089 24.5625 107.88 24.5625C107.435 24.5625 107.038 24.6596 106.687 24.8537C106.342 25.0431 106.067 25.3082 105.863 25.6491C105.664 25.9901 105.565 26.383 105.565 26.8281V33H102.539Z" fill="white"/>
<path d="M160.707 26.7071C161.098 26.3166 161.098 25.6834 160.707 25.2929L154.343 18.9289C153.953 18.5384 153.319 18.5384 152.929 18.9289C152.538 19.3195 152.538 19.9526 152.929 20.3431L158.586 26L152.929 31.6569C152.538 32.0474 152.538 32.6805 152.929 33.0711C153.319 33.4616 153.953 33.4616 154.343 33.0711L160.707 26.7071ZM135 26V27H160V26V25H135V26Z" fill="white"/>
</svg>
