<svg width="187" height="52" viewBox="0 0 187 52" fill="none" xmlns="http://www.w3.org/2000/svg">
<rect width="187" height="52" rx="26" fill="#522E00"/>
<path d="M31.7591 33L27.5971 18.4545H30.9565L33.3642 28.5611H33.4849L36.1412 18.4545H39.0176L41.6667 28.5824H41.7946L44.2022 18.4545H47.5616L43.3997 33H40.4025L37.6326 23.4901H37.519L34.7562 33H31.7591ZM52.9078 33.2131C51.8046 33.2131 50.8506 32.9787 50.0456 32.5099C49.2454 32.0365 48.6275 31.3783 48.1919 30.5355C47.7563 29.688 47.5385 28.7055 47.5385 27.5881C47.5385 26.4612 47.7563 25.4763 48.1919 24.6335C48.6275 23.786 49.2454 23.1278 50.0456 22.6591C50.8506 22.1856 51.8046 21.9489 52.9078 21.9489C54.0111 21.9489 54.9628 22.1856 55.763 22.6591C56.5679 23.1278 57.1882 23.786 57.6238 24.6335C58.0594 25.4763 58.2772 26.4612 58.2772 27.5881C58.2772 28.7055 58.0594 29.688 57.6238 30.5355C57.1882 31.3783 56.5679 32.0365 55.763 32.5099C54.9628 32.9787 54.0111 33.2131 52.9078 33.2131ZM52.9221 30.8693C53.4239 30.8693 53.843 30.7273 54.1792 30.4432C54.5153 30.1544 54.7686 29.7614 54.9391 29.2642C55.1143 28.767 55.2019 28.2012 55.2019 27.5668C55.2019 26.9323 55.1143 26.3665 54.9391 25.8693C54.7686 25.3722 54.5153 24.9792 54.1792 24.6903C53.843 24.4015 53.4239 24.2571 52.9221 24.2571C52.4154 24.2571 51.9893 24.4015 51.6436 24.6903C51.3027 24.9792 51.0447 25.3722 50.8695 25.8693C50.699 26.3665 50.6138 26.9323 50.6138 27.5668C50.6138 28.2012 50.699 28.767 50.8695 29.2642C51.0447 29.7614 51.3027 30.1544 51.6436 30.4432C51.9893 30.7273 52.4154 30.8693 52.9221 30.8693ZM60.2445 33V22.0909H63.1777V23.9943H63.2914C63.4902 23.3172 63.824 22.8059 64.2928 22.4602C64.7615 22.1098 65.3013 21.9347 65.9121 21.9347C66.0636 21.9347 66.227 21.9441 66.4022 21.9631C66.5774 21.982 66.7312 22.008 66.8638 22.0412V24.7259C66.7218 24.6832 66.5253 24.6454 66.2743 24.6122C66.0234 24.5791 65.7937 24.5625 65.5854 24.5625C65.1403 24.5625 64.7426 24.6596 64.3922 24.8537C64.0466 25.0431 63.772 25.3082 63.5684 25.6491C63.3695 25.9901 63.2701 26.383 63.2701 26.8281V33H60.2445ZM71.1696 29.8608L71.1767 26.2315H71.617L75.1113 22.0909H78.5843L73.8897 27.5739H73.1724L71.1696 29.8608ZM68.4281 33V18.4545H71.4537V33H68.4281ZM75.2463 33L72.036 28.2486L74.0531 26.1108L78.7903 33H75.2463ZM84.5911 33.2131C83.4689 33.2131 82.503 32.9858 81.6934 32.5312C80.8884 32.072 80.2682 31.4233 79.8326 30.5852C79.397 29.7424 79.1792 28.7457 79.1792 27.5952C79.1792 26.473 79.397 25.4882 79.8326 24.6406C80.2682 23.7931 80.8813 23.1326 81.6721 22.6591C82.4675 22.1856 83.4003 21.9489 84.4703 21.9489C85.19 21.9489 85.86 22.0649 86.4803 22.2969C87.1053 22.5241 87.6498 22.8674 88.1138 23.3267C88.5826 23.786 88.9471 24.3636 89.2076 25.0597C89.468 25.7509 89.5982 26.5606 89.5982 27.4886V28.3196H80.3865V26.4446H86.7502C86.7502 26.009 86.6555 25.6231 86.4661 25.2869C86.2767 24.9508 86.0139 24.688 85.6777 24.4986C85.3463 24.3045 84.9604 24.2074 84.5201 24.2074C84.0608 24.2074 83.6536 24.3139 83.2985 24.527C82.9481 24.7353 82.6735 25.017 82.4746 25.3722C82.2757 25.7225 82.1739 26.1132 82.1692 26.544V28.3267C82.1692 28.8665 82.2686 29.3329 82.4675 29.7259C82.6711 30.1188 82.9576 30.4219 83.3269 30.6349C83.6962 30.848 84.1342 30.9545 84.6408 30.9545C84.977 30.9545 85.2847 30.9072 85.5641 30.8125C85.8435 30.7178 86.0826 30.5758 86.2814 30.3864C86.4803 30.197 86.6318 29.965 86.736 29.6903L89.5343 29.875C89.3922 30.5473 89.101 31.1345 88.6607 31.6364C88.2251 32.1335 87.6616 32.5218 86.9703 32.8011C86.2838 33.0758 85.4907 33.2131 84.5911 33.2131ZM91.5726 33V22.0909H94.5059V23.9943H94.6195C94.8184 23.3172 95.1522 22.8059 95.6209 22.4602C96.0897 22.1098 96.6294 21.9347 97.2402 21.9347C97.3917 21.9347 97.5551 21.9441 97.7303 21.9631C97.9055 21.982 98.0594 22.008 98.1919 22.0412V24.7259C98.0499 24.6832 97.8534 24.6454 97.6025 24.6122C97.3515 24.5791 97.1219 24.5625 96.9135 24.5625C96.4685 24.5625 96.0707 24.6596 95.7203 24.8537C95.3747 25.0431 95.1001 25.3082 94.8965 25.6491C94.6976 25.9901 94.5982 26.383 94.5982 26.8281V33H91.5726ZM108.833 25.2017L106.063 25.3722C106.016 25.1354 105.914 24.9223 105.758 24.733C105.601 24.5388 105.395 24.3849 105.14 24.2713C104.889 24.1529 104.588 24.0938 104.238 24.0938C103.769 24.0938 103.374 24.1932 103.052 24.392C102.73 24.5862 102.569 24.8466 102.569 25.1733C102.569 25.4337 102.673 25.6539 102.881 25.8338C103.09 26.0137 103.447 26.1581 103.954 26.267L105.928 26.6648C106.989 26.8826 107.779 27.233 108.3 27.7159C108.821 28.1989 109.081 28.8333 109.081 29.6193C109.081 30.3343 108.871 30.9616 108.449 31.5014C108.033 32.0412 107.46 32.4626 106.731 32.7656C106.006 33.0639 105.171 33.2131 104.224 33.2131C102.779 33.2131 101.629 32.9124 100.772 32.3111C99.9196 31.705 99.42 30.8812 99.2733 29.8395L102.249 29.6832C102.339 30.1236 102.557 30.4598 102.903 30.6918C103.248 30.919 103.691 31.0327 104.231 31.0327C104.761 31.0327 105.187 30.9309 105.509 30.7273C105.836 30.5189 106.001 30.2514 106.006 29.9247C106.001 29.6501 105.885 29.4252 105.658 29.25C105.431 29.0701 105.081 28.9328 104.607 28.8381L102.718 28.4616C101.653 28.2486 100.859 27.8793 100.339 27.3537C99.8225 26.8281 99.5645 26.1581 99.5645 25.3438C99.5645 24.643 99.7538 24.0393 100.133 23.5327C100.516 23.026 101.054 22.6354 101.745 22.3608C102.441 22.0862 103.255 21.9489 104.188 21.9489C105.566 21.9489 106.65 22.2401 107.441 22.8224C108.236 23.4048 108.7 24.1979 108.833 25.2017Z" fill="white"/>
<path d="M160.707 26.7071C161.098 26.3166 161.098 25.6834 160.707 25.2929L154.343 18.9289C153.953 18.5384 153.319 18.5384 152.929 18.9289C152.538 19.3195 152.538 19.9526 152.929 20.3431L158.586 26L152.929 31.6569C152.538 32.0474 152.538 32.6805 152.929 33.0711C153.319 33.4616 153.953 33.4616 154.343 33.0711L160.707 26.7071ZM135 26V27H160V26V25H135V26Z" fill="white"/>
</svg>
