<svg width="443" height="197" viewBox="0 0 443 197" fill="none" xmlns="http://www.w3.org/2000/svg">
<g filter="url(#filter0_d_3025_332)">
<path d="M15 151.66C8.33334 147.811 8.33333 138.189 15 134.34L60 108.359C66.6667 104.51 75 109.321 75 117.019V168.981C75 176.679 66.6667 181.49 60 177.641L15 151.66Z" fill="#140C00"/>
<path d="M60.5 102.33C65.141 99.6506 70.859 99.6506 75.5 102.33L99.4711 116.17C104.112 118.849 106.971 123.801 106.971 129.16V156.84C106.971 162.199 104.112 167.151 99.4711 169.83L75.5 183.67C70.859 186.349 65.141 186.349 60.5 183.67L36.5289 169.83C31.8878 167.151 29.0289 162.199 29.0289 156.84V129.16C29.0289 123.801 31.8878 118.849 36.5289 116.17L60.5 102.33Z" fill="#F58B00"/>
<path d="M78.75 92.7627C83.2362 90.1727 88.7638 90.1727 93.25 92.7627L121.551 109.103C126.037 111.693 128.802 116.48 128.802 121.66V154.34C128.802 159.52 126.038 164.307 121.552 166.897L93.25 183.237C88.7638 185.827 83.2362 185.827 78.75 183.237L50.4492 166.897C45.9629 164.307 43.1993 159.52 43.1992 154.34V121.66C43.1993 116.48 45.9621 111.693 50.4482 109.103L78.75 92.7627Z" fill="#140C00" stroke="black"/>
<path opacity="0.75" d="M95.5 97.6314C90.859 94.9519 88 90 88 84.641L88 51.9615C88 46.6025 90.859 41.6506 95.5 38.9711L123.801 22.6314C128.442 19.9519 134.16 19.9519 138.801 22.6314L167.103 38.9711C171.744 41.6506 174.603 46.6025 174.603 51.9615L174.603 84.641C174.603 90 171.744 94.9519 167.103 97.6314L138.801 113.971C134.16 116.651 128.442 116.651 123.801 113.971L95.5 97.6314Z" fill="#FFEEC6"/>
<path d="M98.5 87.3301C103.141 84.6506 108.859 84.6506 113.5 87.3301L141.801 103.67C146.442 106.349 149.301 111.301 149.301 116.66V149.34C149.301 154.699 146.442 159.651 141.801 162.33L113.5 178.67C108.859 181.349 103.141 181.349 98.5 178.67L70.1987 162.33C65.5577 159.651 62.6987 154.699 62.6987 149.34V116.66C62.6987 111.301 65.5577 106.349 70.1987 103.67L98.5 87.3301Z" fill="#140C00"/>
<path d="M98.5 87.3301C103.141 84.6506 108.859 84.6506 113.5 87.3301L141.801 103.67C146.442 106.349 149.301 111.301 149.301 116.66V149.34C149.301 154.699 146.442 159.651 141.801 162.33L113.5 178.67C108.859 181.349 103.141 181.349 98.5 178.67L70.1987 162.33C65.5577 159.651 62.6987 154.699 62.6987 149.34V116.66C62.6987 111.301 65.5577 106.349 70.1987 103.67L98.5 87.3301Z" fill="#F58B00"/>
<path opacity="0.75" d="M32.2492 104.239C28.8045 100.134 27.8116 94.503 29.6444 89.4672L40.8215 58.7585C42.6544 53.7227 47.0346 50.0473 52.3122 49.1167L84.4952 43.442C89.7727 42.5114 95.1459 44.4671 98.5906 48.5723L119.597 73.6062C123.041 77.7115 124.034 83.3426 122.201 88.3784L111.024 119.087C109.191 124.123 104.811 127.798 99.5335 128.729L67.3505 134.404C62.073 135.334 56.6998 133.378 53.2551 129.273L32.2492 104.239Z" fill="#FFEEC6"/>
<path d="M118.5 92.3301C123.141 89.6506 128.859 89.6506 133.5 92.3301L161.801 108.67C166.442 111.349 169.301 116.301 169.301 121.66V154.34C169.301 159.699 166.442 164.651 161.801 167.33L133.5 183.67C128.859 186.349 123.141 186.349 118.5 183.67L90.1987 167.33C85.5577 164.651 82.6987 159.699 82.6987 154.34V121.66C82.6987 116.301 85.5577 111.349 90.1987 108.67L118.5 92.3301Z" fill="#140C00"/>
<path d="M135.5 102.33C140.141 99.6506 145.859 99.6506 150.5 102.33L174.471 116.17C179.112 118.849 181.971 123.801 181.971 129.16V156.84C181.971 162.199 179.112 167.151 174.471 169.83L150.5 183.67C145.859 186.349 140.141 186.349 135.5 183.67L111.529 169.83C106.888 167.151 104.029 162.199 104.029 156.84V129.16C104.029 123.801 106.888 118.849 111.529 116.17L135.5 102.33Z" fill="#140C00"/>
<path d="M135.5 102.33C140.141 99.6506 145.859 99.6506 150.5 102.33L174.471 116.17C179.112 118.849 181.971 123.801 181.971 129.16V156.84C181.971 162.199 179.112 167.151 174.471 169.83L150.5 183.67C145.859 186.349 140.141 186.349 135.5 183.67L111.529 169.83C106.888 167.151 104.029 162.199 104.029 156.84V129.16C104.029 123.801 106.888 118.849 111.529 116.17L135.5 102.33Z" fill="#F58B00"/>
</g>
<path d="M198.689 119V53.5455H224.896C229.712 53.5455 233.728 54.2592 236.945 55.6868C240.163 57.1143 242.581 59.0959 244.2 61.6314C245.82 64.1456 246.629 67.0433 246.629 70.3246C246.629 72.8814 246.118 75.1293 245.095 77.0682C244.072 78.9858 242.666 80.5625 240.876 81.7983C239.108 83.0128 237.084 83.8757 234.804 84.3871V85.0263C237.297 85.1328 239.63 85.8359 241.803 87.1357C243.998 88.4354 245.777 90.2571 247.141 92.6009C248.504 94.9233 249.186 97.6932 249.186 100.911C249.186 104.384 248.323 107.484 246.597 110.211C244.893 112.917 242.368 115.058 239.023 116.635C235.678 118.212 231.555 119 226.654 119H198.689ZM212.528 107.686H223.81C227.666 107.686 230.479 106.951 232.247 105.481C234.016 103.989 234.9 102.008 234.9 99.5362C234.9 97.7251 234.463 96.1271 233.589 94.7422C232.716 93.3572 231.469 92.2706 229.85 91.4822C228.252 90.6939 226.345 90.2997 224.129 90.2997H212.528V107.686ZM212.528 80.9354H222.787C224.683 80.9354 226.366 80.6051 227.837 79.9446C229.328 79.2628 230.5 78.304 231.352 77.0682C232.226 75.8324 232.663 74.3516 232.663 72.6257C232.663 70.2607 231.821 68.3537 230.138 66.9048C228.476 65.456 226.111 64.7315 223.043 64.7315H212.528V80.9354ZM298.621 53.5455H312.459V96.0526C312.459 100.825 311.319 105.001 309.04 108.581C306.781 112.161 303.617 114.952 299.547 116.955C295.478 118.936 290.737 119.927 285.325 119.927C279.892 119.927 275.14 118.936 271.071 116.955C267.001 114.952 263.837 112.161 261.579 108.581C259.32 105.001 258.191 100.825 258.191 96.0526V53.5455H272.03V94.87C272.03 97.3629 272.573 99.5788 273.66 101.518C274.768 103.457 276.323 104.98 278.326 106.088C280.329 107.196 282.662 107.75 285.325 107.75C288.01 107.75 290.343 107.196 292.324 106.088C294.327 104.98 295.872 103.457 296.959 101.518C298.067 99.5788 298.621 97.3629 298.621 94.87V53.5455ZM323.142 119V110.786L355.805 64.9553H323.078V53.5455H373.192V61.7592L340.496 107.59H373.256V119H323.142ZM383.171 119V110.786L415.835 64.9553H383.107V53.5455H433.221V61.7592L400.526 107.59H433.285V119H383.171Z" fill="#F58B00"/>
<path d="M211.153 190L194.506 131.818H207.943L217.574 172.244H218.057L228.682 131.818H240.188L250.784 172.33H251.295L260.926 131.818H274.364L257.716 190H245.727L234.648 151.96H234.193L223.142 190H211.153ZM331.132 160.909C331.132 167.254 329.929 172.652 327.524 177.102C325.138 181.553 321.88 184.953 317.751 187.301C313.642 189.631 309.02 190.795 303.888 190.795C298.717 190.795 294.077 189.621 289.967 187.273C285.857 184.924 282.609 181.525 280.223 177.074C277.837 172.623 276.643 167.235 276.643 160.909C276.643 154.564 277.837 149.167 280.223 144.716C282.609 140.265 285.857 136.875 289.967 134.545C294.077 132.197 298.717 131.023 303.888 131.023C309.02 131.023 313.642 132.197 317.751 134.545C321.88 136.875 325.138 140.265 327.524 144.716C329.929 149.167 331.132 154.564 331.132 160.909ZM318.661 160.909C318.661 156.799 318.045 153.333 316.814 150.511C315.602 147.689 313.888 145.549 311.672 144.091C309.456 142.633 306.861 141.903 303.888 141.903C300.914 141.903 298.32 142.633 296.104 144.091C293.888 145.549 292.164 147.689 290.933 150.511C289.721 153.333 289.115 156.799 289.115 160.909C289.115 165.019 289.721 168.485 290.933 171.307C292.164 174.129 293.888 176.269 296.104 177.727C298.32 179.186 300.914 179.915 303.888 179.915C306.861 179.915 309.456 179.186 311.672 177.727C313.888 176.269 315.602 174.129 316.814 171.307C318.045 168.485 318.661 165.019 318.661 160.909ZM340.244 190V131.818H363.199C367.593 131.818 371.343 132.604 374.449 134.176C377.574 135.729 379.951 137.936 381.58 140.795C383.227 143.636 384.051 146.979 384.051 150.824C384.051 154.687 383.218 158.011 381.551 160.795C379.884 163.561 377.47 165.682 374.307 167.159C371.163 168.636 367.356 169.375 362.886 169.375H347.517V159.489H360.898C363.246 159.489 365.197 159.167 366.75 158.523C368.303 157.879 369.458 156.913 370.216 155.625C370.992 154.337 371.381 152.737 371.381 150.824C371.381 148.892 370.992 147.263 370.216 145.938C369.458 144.612 368.294 143.608 366.722 142.926C365.169 142.225 363.208 141.875 360.841 141.875H352.545V190H340.244ZM371.665 163.523L386.125 190H372.545L358.398 163.523H371.665ZM392.744 190V131.818H405.045V157.472H405.812L426.75 131.818H441.494L419.903 157.869L441.75 190H427.034L411.097 166.08L405.045 173.466V190H392.744Z" fill="white"/>
<defs>
<filter id="filter0_d_3025_332" x="10" y="20.6218" width="171.971" height="170.058" filterUnits="userSpaceOnUse" color-interpolation-filters="sRGB">
<feFlood flood-opacity="0" result="BackgroundImageFix"/>
<feColorMatrix in="SourceAlpha" type="matrix" values="0 0 0 0 0 0 0 0 0 0 0 0 0 0 0 0 0 0 127 0" result="hardAlpha"/>
<feOffset dy="5"/>
<feComposite in2="hardAlpha" operator="out"/>
<feColorMatrix type="matrix" values="0 0 0 0 1 0 0 0 0 0.792157 0 0 0 0 0.521569 0 0 0 1 0"/>
<feBlend mode="normal" in2="BackgroundImageFix" result="effect1_dropShadow_3025_332"/>
<feBlend mode="normal" in="SourceGraphic" in2="effect1_dropShadow_3025_332" result="shape"/>
</filter>
</defs>
</svg>
