<svg width="221" height="52" viewBox="0 0 221 52" fill="none" xmlns="http://www.w3.org/2000/svg">
<rect width="221" height="52" rx="26" fill="#3706FD"/>
<path d="M34.9531 32.1953C31.6562 32.1953 29.5859 29.9922 29.5859 26.3594V26.3516C29.5859 22.7188 31.6641 20.5312 34.9531 20.5312C37.6875 20.5312 39.6484 22.2578 39.8672 24.6484L39.875 24.7188H37.5781L37.5469 24.5859C37.2812 23.3438 36.3594 22.5312 34.9531 22.5312C33.1484 22.5312 31.9922 23.9844 31.9922 26.3438V26.3516C31.9922 28.7266 33.1484 30.1953 34.9531 30.1953C36.3125 30.1953 37.2656 29.4141 37.5703 28.0781L37.5859 28H39.8828L39.875 28.0859C39.6562 30.4844 37.6797 32.1953 34.9531 32.1953ZM41.1484 32V23.625H43.4297V25.0859H43.4766C43.7266 24.0547 44.4062 23.4531 45.3828 23.4531C45.6328 23.4531 45.8672 23.4922 46.0391 23.5391V25.5469C45.8516 25.4688 45.5391 25.4219 45.2109 25.4219C44.0859 25.4219 43.4297 26.0938 43.4297 27.3125V32H41.1484ZM50.5078 32.1719C47.9453 32.1719 46.3906 30.5078 46.3906 27.8281V27.8203C46.3906 25.1562 47.9609 23.4531 50.4141 23.4531C52.8672 23.4531 54.4062 25.1172 54.4062 27.6484V28.3516H48.6406C48.6641 29.6875 49.3906 30.4688 50.5547 30.4688C51.4922 30.4688 52.0625 29.9531 52.2266 29.4844L52.2422 29.4375H54.3359L54.3125 29.5234C54.0547 30.7578 52.8984 32.1719 50.5078 32.1719ZM50.4531 25.1562C49.5156 25.1562 48.8125 25.7812 48.6641 26.9141H52.2188C52.0781 25.7578 51.3984 25.1562 50.4531 25.1562ZM58.0781 32.1328C56.3984 32.1328 55.2656 31.0781 55.2656 29.6016V29.5859C55.2656 28.0625 56.4453 27.1719 58.5234 27.0391L60.5938 26.9141V26.3984C60.5938 25.6562 60.1094 25.1953 59.2188 25.1953C58.3672 25.1953 57.8516 25.5938 57.7422 26.1328L57.7266 26.2031H55.6406L55.6484 26.1094C55.7734 24.5625 57.1016 23.4531 59.3125 23.4531C61.4766 23.4531 62.875 24.5703 62.875 26.2578V32H60.5938V30.75H60.5469C60.0703 31.6094 59.1797 32.1328 58.0781 32.1328ZM57.5234 29.4844C57.5234 30.1016 58.0312 30.4688 58.8203 30.4688C59.8438 30.4688 60.5938 29.8125 60.5938 28.9375V28.3359L58.8672 28.4453C57.9844 28.5 57.5234 28.875 57.5234 29.4688V29.4844ZM67.6797 32.1719C65.8203 32.1719 64.9453 31.4531 64.9453 29.6562V25.3438H63.7812V23.625H64.9453V21.5781H67.25V23.625H68.7812V25.3438H67.25V29.4062C67.25 30.1875 67.6016 30.4531 68.2891 30.4531C68.4922 30.4531 68.6406 30.4297 68.7812 30.4141V32.0859C68.5234 32.125 68.1562 32.1719 67.6797 32.1719ZM73.7578 32.1719C71.2109 32.1719 69.6094 30.5391 69.6094 27.8125V27.7969C69.6094 25.1016 71.25 23.4531 73.75 23.4531C76.2578 23.4531 77.9062 25.0859 77.9062 27.7969V27.8125C77.9062 30.5469 76.2891 32.1719 73.7578 32.1719ZM73.7656 30.3828C74.875 30.3828 75.5859 29.4453 75.5859 27.8125V27.7969C75.5859 26.1797 74.8594 25.2422 73.75 25.2422C72.6484 25.2422 71.9297 26.1797 71.9297 27.7969V27.8125C71.9297 29.4531 72.6406 30.3828 73.7656 30.3828ZM79.0859 32V23.625H81.3672V25.0859H81.4141C81.6641 24.0547 82.3438 23.4531 83.3203 23.4531C83.5703 23.4531 83.8047 23.4922 83.9766 23.5391V25.5469C83.7891 25.4688 83.4766 25.4219 83.1484 25.4219C82.0234 25.4219 81.3672 26.0938 81.3672 27.3125V32H79.0859ZM92.3984 32.1953C89.7188 32.1953 87.9922 30.9688 87.8594 28.8906L87.8516 28.7656H90.0781L90.0938 28.8516C90.2422 29.7266 91.1719 30.2734 92.4609 30.2734C93.7656 30.2734 94.5859 29.7031 94.5859 28.8438V28.8359C94.5859 28.0703 94.0312 27.6875 92.6328 27.3984L91.4453 27.1641C89.2188 26.7188 88.0938 25.6562 88.0938 23.9609V23.9531C88.0938 21.8906 89.8906 20.5312 92.3906 20.5312C95 20.5312 96.6016 21.8359 96.7109 23.8125L96.7188 23.9609H94.4922L94.4844 23.8672C94.3672 22.9844 93.5547 22.4453 92.3906 22.4453C91.1797 22.4531 90.4531 23.0078 90.4531 23.8125V23.8203C90.4531 24.5312 91.0312 24.9453 92.3281 25.2031L93.5234 25.4453C95.8828 25.9141 96.9453 26.875 96.9453 28.6484V28.6562C96.9453 30.8203 95.2422 32.1953 92.3984 32.1953ZM99.3828 22.5469C98.6953 22.5469 98.1641 22.0078 98.1641 21.3594C98.1641 20.7109 98.6953 20.1719 99.3828 20.1719C100.07 20.1719 100.602 20.7109 100.602 21.3594C100.602 22.0078 100.07 22.5469 99.3828 22.5469ZM98.2422 32V23.625H100.523V32H98.2422ZM105.969 34.9062C103.664 34.9062 102.211 33.8672 101.992 32.5234L101.984 32.4531H104.203L104.227 32.5078C104.406 32.9219 105.016 33.2812 105.969 33.2812C107.148 33.2812 107.773 32.6719 107.773 31.7344V30.4531H107.727C107.289 31.3281 106.352 31.8828 105.141 31.8828C103.047 31.8828 101.75 30.3203 101.75 27.7188V27.7109C101.75 25.0391 103.062 23.4531 105.18 23.4531C106.359 23.4531 107.273 24.0781 107.727 25.0547H107.773V23.625H110.055V31.7656C110.055 33.6328 108.484 34.9062 105.969 34.9062ZM105.93 30.2109C107.047 30.2109 107.781 29.2734 107.781 27.7734V27.7656C107.781 26.2734 107.039 25.3438 105.93 25.3438C104.797 25.3438 104.07 26.2656 104.07 27.7656V27.7734C104.07 29.2812 104.789 30.2109 105.93 30.2109ZM111.555 32V23.625H113.836V25H113.883C114.312 24.0391 115.172 23.4531 116.438 23.4531C118.281 23.4531 119.328 24.6328 119.328 26.5938V32H117.047V27.0625C117.047 25.9688 116.531 25.3438 115.508 25.3438C114.484 25.3438 113.836 26.0938 113.836 27.1875V32H111.555ZM123.625 32.1719C121.781 32.1719 120.734 30.9922 120.734 29.0312V23.625H123.016V28.5547C123.016 29.6484 123.531 30.2812 124.555 30.2812C125.578 30.2812 126.227 29.5312 126.227 28.4375V23.625H128.508V32H126.227V30.6172H126.18C125.75 31.5781 124.891 32.1719 123.625 32.1719ZM129.992 34.7344V23.625H132.273V25.0859H132.328C132.781 24.0703 133.695 23.4531 134.883 23.4531C137.008 23.4531 138.305 25.0781 138.305 27.8047V27.8125C138.305 30.5312 137.008 32.1719 134.914 32.1719C133.719 32.1719 132.773 31.5625 132.32 30.5703H132.273V34.7344H129.992ZM134.133 30.2812C135.266 30.2812 135.984 29.3359 135.984 27.8125V27.8047C135.984 26.2734 135.266 25.3438 134.133 25.3438C133.023 25.3438 132.266 26.2969 132.266 27.8125V27.8203C132.266 29.3281 133.023 30.2812 134.133 30.2812Z" fill="white"/>
<path d="M192.707 26.7071C193.098 26.3166 193.098 25.6834 192.707 25.2929L186.343 18.9289C185.953 18.5384 185.319 18.5384 184.929 18.9289C184.538 19.3195 184.538 19.9526 184.929 20.3431L190.586 26L184.929 31.6569C184.538 32.0474 184.538 32.6805 184.929 33.0711C185.319 33.4616 185.953 33.4616 186.343 33.0711L192.707 26.7071ZM167 27H192V25H167V27Z" fill="white"/>
</svg>
