<svg width="1440" height="84" viewBox="0 0 1440 84" fill="none" xmlns="http://www.w3.org/2000/svg">
<rect x="0.5" y="0.5" width="1439" height="83" fill="white"/>
<rect x="0.5" y="0.5" width="1439" height="83" stroke="#C9C9C9"/>
<path d="M229.176 44.8898C229.176 44.1391 229.176 43.4131 229.176 42.685C229.18 40.116 229.151 37.545 229.194 34.9761C229.26 31.0388 231.678 27.4534 235.393 26.4532C236.552 26.1403 237.794 26.085 239.005 26.0073C242.002 25.8151 245.003 25.6821 248.003 25.5205C250.179 25.4039 252.355 25.2771 254.531 25.1565C254.682 25.1483 254.833 25.1565 255.014 25.1565C255.033 25.2996 255.061 25.4142 255.061 25.5267C255.064 27.7909 255.062 30.055 255.068 32.3192C255.068 32.624 255.006 32.7774 254.649 32.7937C251.219 32.941 247.79 33.1087 244.36 33.258C242.146 33.3562 239.933 33.4319 237.722 33.5219C237.024 33.5505 236.647 33.9248 236.633 34.6141C236.618 35.3974 236.622 36.1808 236.633 36.9621C236.639 37.543 236.876 37.858 237.464 37.9439C238.176 38.0461 238.897 38.0891 239.615 38.1341C242.373 38.31 245.131 38.4716 247.889 38.6475C250.424 38.807 252.96 38.9747 255.495 39.1424C255.664 39.1527 255.833 39.1915 256.056 39.2263V39.8358C256.056 43.1206 256.05 46.4074 256.058 49.6922C256.064 51.9093 255.068 53.6479 253.43 55.0591C251.553 56.675 249.306 57.2395 246.86 57.2906C243.205 57.3683 239.549 57.5176 235.894 57.6424C233.835 57.714 231.779 57.7978 229.677 57.8776V51.171C230.941 51.128 232.189 51.0892 233.435 51.0442C236.884 50.9255 240.331 50.8028 243.78 50.6842C244.948 50.6433 246.113 50.6065 247.281 50.5696C247.906 50.5512 248.31 50.1769 248.324 49.5572C248.341 48.7922 248.324 48.0253 248.331 47.2603C248.335 46.7469 248.073 46.4544 247.58 46.391C246.883 46.301 246.183 46.2315 245.482 46.1763C241.684 45.8797 237.885 45.5934 234.087 45.2968C232.499 45.172 230.912 45.0329 229.178 44.8877L229.176 44.8898Z" fill="black"/>
<path d="M44.0693 29.1386C45.6989 29.0445 47.2914 28.9545 48.8818 28.8625C49.8245 28.8072 50.7672 28.7541 51.7078 28.6804C52.0379 28.6538 52.1802 28.75 52.2813 29.0834C53.7356 33.8388 55.2063 38.5901 56.675 43.3414C56.7039 43.4334 56.7514 43.5193 56.8442 43.7341C56.9453 43.4375 57.0133 43.2575 57.0711 43.0734C58.5604 38.2219 60.0518 33.3704 61.5308 28.5148C61.6319 28.1814 61.799 28.075 62.1435 28.0587C64.526 27.938 66.9065 27.8009 69.2869 27.6475C69.7016 27.621 69.8191 27.7478 69.8191 28.1527C69.8088 37.1727 69.8109 46.1947 69.8129 55.2146C69.8129 55.4989 69.8336 55.7566 69.4107 55.7668C67.6449 55.8077 65.8813 55.867 64.0413 55.9223V39.9441C63.9876 39.9318 63.934 39.9195 63.8804 39.9073C63.8185 40.077 63.7483 40.2447 63.6968 40.4186C62.1291 45.4809 60.5593 50.543 58.9998 55.6073C58.8905 55.9611 58.7316 56.1288 58.3232 56.1309C57.2939 56.137 56.2645 56.1902 55.2373 56.2454C54.8784 56.2638 54.7009 56.1718 54.5813 55.7955C53.0445 50.8867 51.4871 45.984 49.9318 41.0792C49.872 40.889 49.7894 40.7049 49.6017 40.525V41.0342C49.6017 45.9697 49.5935 50.9051 49.6141 55.8425C49.6162 56.3681 49.4594 56.5113 48.952 56.5031C47.3409 56.4786 45.7299 56.4929 44.0714 56.4929V29.1386H44.0693Z" fill="black"/>
<path d="M187.929 53.6806C184.259 53.8012 180.614 53.9219 176.917 54.0426C176.905 54.2696 176.889 54.4517 176.889 54.6337C176.887 56.1657 176.887 57.6976 176.889 59.2275C176.889 59.477 176.901 59.7 176.538 59.7102C174.496 59.7695 172.456 59.8432 170.414 59.9107C170.348 59.9127 170.279 59.8943 170.172 59.8779C170.16 59.7286 170.137 59.5834 170.137 59.4382C170.137 53.5681 170.127 47.6959 170.149 41.8258C170.156 40.0279 170.803 38.4428 172.006 37.0867C174.215 34.5955 176.42 32.1002 178.644 29.6213C178.803 29.4433 179.092 29.3022 179.329 29.2858C181.093 29.1652 182.856 29.0731 184.622 28.9954C184.857 28.9852 185.162 29.0404 185.325 29.1856C187.906 31.505 190.489 33.8224 193.028 36.1847C194.173 37.2503 194.777 38.6514 194.822 40.1834C194.926 43.7689 194.934 47.3564 194.961 50.9439C194.979 53.4965 194.957 56.0491 194.973 58.6016C194.975 59.0209 194.853 59.1518 194.424 59.16C192.417 59.1968 190.408 59.2623 188.401 59.338C188.042 59.3523 187.964 59.2214 187.966 58.9023C187.976 57.3029 187.97 55.7034 187.968 54.104C187.968 53.9894 187.949 53.8728 187.931 53.6785L187.929 53.6806ZM176.891 46.933C180.622 46.7919 184.282 46.6549 187.966 46.5158C187.966 45.1311 187.972 43.8221 187.955 42.513C187.955 42.3678 187.838 42.2 187.733 42.0814C186.431 40.6333 185.125 39.1893 183.813 37.7515C183.36 37.2524 182.881 36.7758 182.353 36.2256C180.534 38.4203 178.77 40.5474 177.01 42.6807C176.94 42.7646 176.895 42.8955 176.895 43.0059C176.887 44.2802 176.891 45.5545 176.891 46.933Z" fill="black"/>
<path d="M225.32 26.7701C225.32 27.0094 225.32 27.1955 225.32 27.3796C225.32 35.1232 225.326 42.8689 225.316 50.6125C225.312 53.4412 223.938 55.5193 221.585 57.0063C220.114 57.9369 218.478 58.2887 216.739 58.3337C213.323 58.4237 209.909 58.5484 206.497 58.6916C204.098 58.7918 201.967 58.1823 200.27 56.4417C198.981 55.1205 198.29 53.521 198.287 51.6679C198.281 44.6893 198.285 37.7106 198.287 30.7319C198.287 30.0181 198.306 29.3022 198.3 28.5884C198.3 28.3164 198.389 28.1936 198.681 28.1773C200.773 28.0689 202.863 27.9461 204.952 27.8316C205.084 27.8234 205.218 27.8418 205.408 27.8521V28.4779C205.408 35.9332 205.408 43.3884 205.408 50.8437C205.408 51.8684 205.664 52.12 206.671 52.0893C209.193 52.0095 211.714 51.9297 214.237 51.85C215.06 51.8234 215.883 51.7866 216.708 51.7743C217.657 51.76 218.074 51.3652 218.072 50.3998C218.068 48.7329 218.028 47.0659 218.028 45.399C218.024 39.8009 218.028 34.2008 218.035 28.6027C218.035 28.4513 218.072 28.2979 218.078 28.1466C218.117 27.1014 218.117 27.126 219.19 27.081C221.092 26.9992 222.993 26.8805 224.895 26.7783C225.013 26.7721 225.131 26.7783 225.322 26.7783L225.32 26.7701Z" fill="black"/>
<path d="M118.047 36.8393C118.047 39.1464 118.049 41.4065 118.047 43.6666C118.047 44.6197 118.078 45.5749 118.012 46.5239C117.808 49.5162 116.007 52.6374 112.983 53.611C112.152 53.8789 111.234 53.9403 110.351 53.9792C106.885 54.1305 103.42 54.245 99.9522 54.3534C98.8754 54.3862 97.7987 54.3596 96.6662 54.3596C96.66 54.2594 96.6394 54.0957 96.6414 53.9301C96.6476 52.0586 96.6703 50.1851 96.6559 48.3136C96.6517 47.8697 96.8374 47.7736 97.2314 47.7593C99.7026 47.6713 102.172 47.5711 104.643 47.4668C106.753 47.3768 108.861 47.2848 110.97 47.1764C111.566 47.1457 111.846 46.8675 111.867 46.2846C111.896 45.5197 111.885 44.7527 111.873 43.9877C111.865 43.5132 111.566 43.2841 111.118 43.2453C109.152 43.0776 107.184 42.9242 105.219 42.7585C103.013 42.5724 100.808 42.3781 98.6031 42.1878C98.0049 42.1367 97.4067 42.0713 96.8064 42.0426C96.5032 42.0283 96.3877 41.9342 96.3898 41.6213C96.4063 38.8642 96.3609 36.105 96.4269 33.3479C96.4826 31.0571 97.2685 29.02 98.9744 27.4042C100.074 26.3631 101.371 25.7106 102.914 25.6145C105.759 25.4386 108.604 25.2689 111.448 25.095C113.214 24.9886 114.978 24.8884 116.743 24.7677C117.181 24.7371 117.346 24.8434 117.339 25.3159C117.313 27.1035 117.319 28.8911 117.335 30.6788C117.339 31.0817 117.236 31.2453 116.797 31.2658C114.654 31.3619 112.513 31.4887 110.369 31.6073C108.158 31.7301 105.947 31.8487 103.737 31.9816C102.652 32.0471 102.456 32.2721 102.456 33.3643C102.456 33.892 102.442 34.4197 102.463 34.9474C102.485 35.5528 102.753 35.8003 103.354 35.8412C106.881 36.0764 110.408 36.3177 113.938 36.5529C115.136 36.6327 116.337 36.6941 117.535 36.7698C117.719 36.782 117.901 36.8188 118.051 36.8393H118.047Z" fill="black"/>
<path d="M142.231 60.8597C142.219 60.6081 142.198 60.3913 142.198 60.1765C142.198 56.3006 142.267 52.4227 142.165 48.5509C142.122 46.8594 142.498 45.4481 143.479 44.0491C145.173 41.6376 146.695 39.1075 148.294 36.6306C148.391 36.4813 148.506 36.3443 148.727 36.2399V42.9936C152.607 42.8259 156.421 42.6602 160.316 42.4925C160.316 42.2716 160.316 42.0753 160.316 41.8769C160.316 38.2505 160.316 34.6262 160.316 30.9998C160.316 30.1224 160.26 30.2778 161.1 30.2348C162.917 30.1428 164.73 30.0242 166.548 29.9178C166.698 29.9096 166.851 29.9178 167.092 29.9178C167.092 30.4844 167.092 31.0223 167.092 31.5582C167.096 36.4077 167.1 41.2571 167.107 46.1067C167.113 49.7269 167.125 53.3492 167.127 56.9695C167.127 57.8551 167.117 58.7387 167.078 59.6222C167.072 59.7634 166.894 60.015 166.787 60.019C164.662 60.1131 162.538 60.1786 160.341 60.2543V49.8599C159.66 49.8599 159.049 49.8435 158.441 49.8619C156.279 49.9335 154.117 50.0174 151.958 50.093C151.083 50.1237 150.208 50.1646 149.334 50.1728C148.878 50.1769 148.731 50.3385 148.735 50.8069C148.758 53.9035 148.74 57.0022 148.756 60.1009C148.758 60.5324 148.661 60.6858 148.191 60.692C146.39 60.7206 144.587 60.8004 142.786 60.8597C142.619 60.8658 142.45 60.8597 142.234 60.8597H142.231Z" fill="black"/>
<path d="M78.4201 55.4129C76.4048 55.4907 74.4575 55.5643 72.4628 55.64C72.4484 55.4395 72.4277 55.2759 72.4277 55.1123C72.4277 49.6144 72.4277 44.1166 72.436 38.6188C72.438 36.8905 72.9764 35.3749 74.1646 34.0618C76.1799 31.8303 78.1313 29.5436 80.1281 27.2958C80.2849 27.1199 80.5696 26.9808 80.8047 26.9624C82.3106 26.8438 83.8164 26.7538 85.3243 26.6802C85.5161 26.6699 85.7719 26.762 85.9039 26.897C88.0245 29.0548 90.1615 31.1962 92.2243 33.4093C93.3774 34.6467 93.792 36.2237 93.7941 37.8865C93.8065 43.3844 93.7982 48.8822 93.8003 54.38C93.8003 54.6459 93.8189 54.8975 93.429 54.9077C91.6426 54.9486 89.8583 54.9998 88.074 55.0448C88.0265 55.0448 87.9791 55.0202 87.8656 54.9916V49.4999C86.5847 49.4999 85.3717 49.4733 84.1609 49.506C82.5663 49.549 80.9718 49.6471 79.3773 49.7003C78.4201 49.733 78.4201 49.7146 78.4201 50.6821C78.4201 52.2304 78.4201 53.7767 78.4201 55.417V55.4129ZM78.4263 42.9999C78.5955 43.0142 78.6821 43.0305 78.7667 43.0285C81.6814 42.9017 84.5941 42.7687 87.5088 42.6501C87.8718 42.6358 87.8698 42.421 87.8698 42.1715C87.8698 41.0834 87.8925 39.9932 87.8553 38.9051C87.845 38.6106 87.7254 38.269 87.5377 38.0399C86.1556 36.3484 84.7446 34.6794 83.3378 33.0064C83.278 32.9348 83.1893 32.8898 83.1027 32.8243C83.0222 32.9123 82.9603 32.9696 82.9088 33.037C81.6525 34.6754 80.3942 36.3116 79.1462 37.954C78.8905 38.2895 78.4841 38.6392 78.4614 38.9992C78.3789 40.3164 78.4284 41.6418 78.4284 43.0019L78.4263 42.9999Z" fill="black"/>
<path d="M121.259 53.8156V24.553C123.373 24.4323 125.454 24.3117 127.606 24.1889V24.8475C127.606 28.2694 127.612 31.6912 127.598 35.111C127.596 35.5589 127.705 35.6817 128.179 35.653C130.424 35.5139 132.67 35.4219 134.917 35.3074C136.183 35.2439 137.448 35.1703 138.766 35.0967V23.514C140.958 23.3872 143.102 23.2624 145.274 23.1376C145.286 23.3851 145.301 23.5344 145.301 23.6837C145.301 28.0587 145.305 32.4337 145.292 36.8066C145.292 37.0459 145.228 37.32 145.101 37.5204C143.108 40.6559 141.099 43.7832 139.094 46.9105C139.034 47.0046 138.955 47.0905 138.807 47.2787V42.3228C138.452 42.3433 138.153 42.3617 137.854 42.374C135.366 42.4783 132.881 42.5826 130.393 42.6849C129.673 42.7155 128.951 42.7626 128.231 42.7626C127.761 42.7626 127.587 42.9037 127.592 43.4069C127.616 46.6405 127.6 49.8742 127.61 53.1099C127.61 53.4801 127.53 53.6847 127.111 53.6928C125.24 53.7317 123.369 53.7869 121.498 53.834C121.432 53.834 121.366 53.8237 121.259 53.8156Z" fill="black"/>
<path d="M22.0181 45.7611C22.0181 43.2534 22.0635 40.7867 22.0037 38.32C21.9562 36.3177 22.3647 34.4707 23.5219 32.8181C24.6708 31.1757 26.2076 30.2021 28.2787 30.1019C30.9005 29.9751 33.5202 29.791 36.142 29.6294C37.5633 29.5415 38.9845 29.4597 40.4058 29.3513C40.6987 29.3288 40.7792 29.4269 40.7771 29.6785C40.7668 31.5664 40.7503 33.4542 40.7503 35.342C40.7503 35.6877 40.5626 35.7061 40.2923 35.7204C37.98 35.8452 35.6655 35.9781 33.3531 36.1152C31.6926 36.2134 30.032 36.3258 28.3694 36.4261C27.6701 36.469 27.435 36.7042 27.4267 37.414C27.4205 37.9928 27.4185 38.5716 27.4267 39.1504C27.435 39.7825 27.6722 40.0361 28.3323 40.0852C29.6154 40.1792 30.9025 40.2488 32.1856 40.3347C34.4629 40.486 36.7402 40.6435 39.0175 40.799C39.7189 40.846 40.4202 40.9135 41.1236 40.936C41.4393 40.9462 41.5424 41.0526 41.5403 41.3553C41.5341 43.8405 41.5197 46.3256 41.5486 48.8106C41.5692 50.5492 41.2577 52.1957 40.3398 53.6929C39.0196 55.8445 37.1487 56.9858 34.5351 57.0165C31.2058 57.0554 27.8785 57.2395 24.5512 57.3622C23.9179 57.3867 23.2826 57.4174 22.6493 57.4583C22.375 57.4747 22.2285 57.3949 22.2306 57.0942C22.2347 55.2391 22.2368 53.384 22.2306 51.5289C22.2306 51.2323 22.3605 51.1648 22.6369 51.1546C25.7414 51.0278 28.8459 50.8887 31.9504 50.7537C32.9117 50.7128 33.8709 50.676 34.8321 50.633C35.5851 50.6003 35.8677 50.361 35.911 49.6329C35.9481 49.005 35.9357 48.3729 35.9151 47.745C35.8986 47.2071 35.55 46.9678 35.0426 46.9228C34.0173 46.8328 32.9921 46.751 31.9649 46.661C30.2218 46.5097 28.4767 46.3583 26.7336 46.2049C25.2464 46.074 23.7591 45.941 22.2739 45.8081C22.2058 45.802 22.1398 45.7856 22.0202 45.7652L22.0181 45.7611Z" fill="black"/>
<rect x="1032" y="16" width="150" height="52" rx="26" fill="#3706FD"/>
<path d="M1066.05 48.1953C1063.38 48.1953 1061.65 46.9688 1061.52 44.8906L1061.51 44.7656H1063.73L1063.75 44.8516C1063.9 45.7266 1064.83 46.2734 1066.12 46.2734C1067.42 46.2734 1068.24 45.7031 1068.24 44.8438V44.8359C1068.24 44.0703 1067.69 43.6875 1066.29 43.3984L1065.1 43.1641C1062.88 42.7188 1061.75 41.6562 1061.75 39.9609V39.9531C1061.75 37.8906 1063.55 36.5312 1066.05 36.5312C1068.66 36.5312 1070.26 37.8359 1070.37 39.8125L1070.38 39.9609H1068.15L1068.14 39.8672C1068.02 38.9844 1067.21 38.4453 1066.05 38.4453C1064.84 38.4531 1064.11 39.0078 1064.11 39.8125V39.8203C1064.11 40.5312 1064.69 40.9453 1065.98 41.2031L1067.18 41.4453C1069.54 41.9141 1070.6 42.875 1070.6 44.6484V44.6562C1070.6 46.8203 1068.9 48.1953 1066.05 48.1953ZM1071.91 48V36.7266H1074.19V41.0703H1074.23C1074.66 40.0312 1075.55 39.4531 1076.8 39.4531C1078.62 39.4531 1079.74 40.7188 1079.74 42.7422V48H1077.46V43.2109C1077.46 42.0391 1076.88 41.3438 1075.84 41.3438C1074.84 41.3438 1074.19 42.1094 1074.19 43.2031V48H1071.91ZM1085.05 48.1719C1082.51 48.1719 1080.91 46.5391 1080.91 43.8125V43.7969C1080.91 41.1016 1082.55 39.4531 1085.05 39.4531C1087.55 39.4531 1089.2 41.0859 1089.2 43.7969V43.8125C1089.2 46.5469 1087.59 48.1719 1085.05 48.1719ZM1085.06 46.3828C1086.17 46.3828 1086.88 45.4453 1086.88 43.8125V43.7969C1086.88 42.1797 1086.16 41.2422 1085.05 41.2422C1083.95 41.2422 1083.23 42.1797 1083.23 43.7969V43.8125C1083.23 45.4531 1083.94 46.3828 1085.06 46.3828ZM1090.38 50.7344V39.625H1092.66V41.0859H1092.72C1093.17 40.0703 1094.09 39.4531 1095.27 39.4531C1097.4 39.4531 1098.7 41.0781 1098.7 43.8047V43.8125C1098.7 46.5312 1097.4 48.1719 1095.3 48.1719C1094.11 48.1719 1093.16 47.5625 1092.71 46.5703H1092.66V50.7344H1090.38ZM1094.52 46.2812C1095.66 46.2812 1096.38 45.3359 1096.38 43.8125V43.8047C1096.38 42.2734 1095.66 41.3438 1094.52 41.3438C1093.41 41.3438 1092.66 42.2969 1092.66 43.8125V43.8203C1092.66 45.3281 1093.41 46.2812 1094.52 46.2812Z" fill="white"/>
<path d="M1153.71 42.7071C1154.1 42.3166 1154.1 41.6834 1153.71 41.2929L1147.34 34.9289C1146.95 34.5384 1146.32 34.5384 1145.93 34.9289C1145.54 35.3195 1145.54 35.9526 1145.93 36.3431L1151.59 42L1145.93 47.6569C1145.54 48.0474 1145.54 48.6805 1145.93 49.0711C1146.32 49.4616 1146.95 49.4616 1147.34 49.0711L1153.71 42.7071ZM1128 43H1153V41H1128V43Z" fill="white"/>
<rect x="1197" y="16" width="221" height="52" rx="26" fill="#3706FD"/>
<path d="M1231.95 48.1953C1228.66 48.1953 1226.59 45.9922 1226.59 42.3594V42.3516C1226.59 38.7188 1228.66 36.5312 1231.95 36.5312C1234.69 36.5312 1236.65 38.2578 1236.87 40.6484L1236.88 40.7188H1234.58L1234.55 40.5859C1234.28 39.3438 1233.36 38.5312 1231.95 38.5312C1230.15 38.5312 1228.99 39.9844 1228.99 42.3438V42.3516C1228.99 44.7266 1230.15 46.1953 1231.95 46.1953C1233.31 46.1953 1234.27 45.4141 1234.57 44.0781L1234.59 44H1236.88L1236.88 44.0859C1236.66 46.4844 1234.68 48.1953 1231.95 48.1953ZM1238.15 48V39.625H1240.43V41.0859H1240.48C1240.73 40.0547 1241.41 39.4531 1242.38 39.4531C1242.63 39.4531 1242.87 39.4922 1243.04 39.5391V41.5469C1242.85 41.4688 1242.54 41.4219 1242.21 41.4219C1241.09 41.4219 1240.43 42.0938 1240.43 43.3125V48H1238.15ZM1247.51 48.1719C1244.95 48.1719 1243.39 46.5078 1243.39 43.8281V43.8203C1243.39 41.1562 1244.96 39.4531 1247.41 39.4531C1249.87 39.4531 1251.41 41.1172 1251.41 43.6484V44.3516H1245.64C1245.66 45.6875 1246.39 46.4688 1247.55 46.4688C1248.49 46.4688 1249.06 45.9531 1249.23 45.4844L1249.24 45.4375H1251.34L1251.31 45.5234C1251.05 46.7578 1249.9 48.1719 1247.51 48.1719ZM1247.45 41.1562C1246.52 41.1562 1245.81 41.7812 1245.66 42.9141H1249.22C1249.08 41.7578 1248.4 41.1562 1247.45 41.1562ZM1255.08 48.1328C1253.4 48.1328 1252.27 47.0781 1252.27 45.6016V45.5859C1252.27 44.0625 1253.45 43.1719 1255.52 43.0391L1257.59 42.9141V42.3984C1257.59 41.6562 1257.11 41.1953 1256.22 41.1953C1255.37 41.1953 1254.85 41.5938 1254.74 42.1328L1254.73 42.2031H1252.64L1252.65 42.1094C1252.77 40.5625 1254.1 39.4531 1256.31 39.4531C1258.48 39.4531 1259.88 40.5703 1259.88 42.2578V48H1257.59V46.75H1257.55C1257.07 47.6094 1256.18 48.1328 1255.08 48.1328ZM1254.52 45.4844C1254.52 46.1016 1255.03 46.4688 1255.82 46.4688C1256.84 46.4688 1257.59 45.8125 1257.59 44.9375V44.3359L1255.87 44.4453C1254.98 44.5 1254.52 44.875 1254.52 45.4688V45.4844ZM1264.68 48.1719C1262.82 48.1719 1261.95 47.4531 1261.95 45.6562V41.3438H1260.78V39.625H1261.95V37.5781H1264.25V39.625H1265.78V41.3438H1264.25V45.4062C1264.25 46.1875 1264.6 46.4531 1265.29 46.4531C1265.49 46.4531 1265.64 46.4297 1265.78 46.4141V48.0859C1265.52 48.125 1265.16 48.1719 1264.68 48.1719ZM1270.76 48.1719C1268.21 48.1719 1266.61 46.5391 1266.61 43.8125V43.7969C1266.61 41.1016 1268.25 39.4531 1270.75 39.4531C1273.26 39.4531 1274.91 41.0859 1274.91 43.7969V43.8125C1274.91 46.5469 1273.29 48.1719 1270.76 48.1719ZM1270.77 46.3828C1271.88 46.3828 1272.59 45.4453 1272.59 43.8125V43.7969C1272.59 42.1797 1271.86 41.2422 1270.75 41.2422C1269.65 41.2422 1268.93 42.1797 1268.93 43.7969V43.8125C1268.93 45.4531 1269.64 46.3828 1270.77 46.3828ZM1276.09 48V39.625H1278.37V41.0859H1278.41C1278.66 40.0547 1279.34 39.4531 1280.32 39.4531C1280.57 39.4531 1280.8 39.4922 1280.98 39.5391V41.5469C1280.79 41.4688 1280.48 41.4219 1280.15 41.4219C1279.02 41.4219 1278.37 42.0938 1278.37 43.3125V48H1276.09ZM1289.4 48.1953C1286.72 48.1953 1284.99 46.9688 1284.86 44.8906L1284.85 44.7656H1287.08L1287.09 44.8516C1287.24 45.7266 1288.17 46.2734 1289.46 46.2734C1290.77 46.2734 1291.59 45.7031 1291.59 44.8438V44.8359C1291.59 44.0703 1291.03 43.6875 1289.63 43.3984L1288.45 43.1641C1286.22 42.7188 1285.09 41.6562 1285.09 39.9609V39.9531C1285.09 37.8906 1286.89 36.5312 1289.39 36.5312C1292 36.5312 1293.6 37.8359 1293.71 39.8125L1293.72 39.9609H1291.49L1291.48 39.8672C1291.37 38.9844 1290.55 38.4453 1289.39 38.4453C1288.18 38.4531 1287.45 39.0078 1287.45 39.8125V39.8203C1287.45 40.5312 1288.03 40.9453 1289.33 41.2031L1290.52 41.4453C1292.88 41.9141 1293.95 42.875 1293.95 44.6484V44.6562C1293.95 46.8203 1292.24 48.1953 1289.4 48.1953ZM1296.38 38.5469C1295.7 38.5469 1295.16 38.0078 1295.16 37.3594C1295.16 36.7109 1295.7 36.1719 1296.38 36.1719C1297.07 36.1719 1297.6 36.7109 1297.6 37.3594C1297.6 38.0078 1297.07 38.5469 1296.38 38.5469ZM1295.24 48V39.625H1297.52V48H1295.24ZM1302.97 50.9062C1300.66 50.9062 1299.21 49.8672 1298.99 48.5234L1298.98 48.4531H1301.2L1301.23 48.5078C1301.41 48.9219 1302.02 49.2812 1302.97 49.2812C1304.15 49.2812 1304.77 48.6719 1304.77 47.7344V46.4531H1304.73C1304.29 47.3281 1303.35 47.8828 1302.14 47.8828C1300.05 47.8828 1298.75 46.3203 1298.75 43.7188V43.7109C1298.75 41.0391 1300.06 39.4531 1302.18 39.4531C1303.36 39.4531 1304.27 40.0781 1304.73 41.0547H1304.77V39.625H1307.05V47.7656C1307.05 49.6328 1305.48 50.9062 1302.97 50.9062ZM1302.93 46.2109C1304.05 46.2109 1304.78 45.2734 1304.78 43.7734V43.7656C1304.78 42.2734 1304.04 41.3438 1302.93 41.3438C1301.8 41.3438 1301.07 42.2656 1301.07 43.7656V43.7734C1301.07 45.2812 1301.79 46.2109 1302.93 46.2109ZM1308.55 48V39.625H1310.84V41H1310.88C1311.31 40.0391 1312.17 39.4531 1313.44 39.4531C1315.28 39.4531 1316.33 40.6328 1316.33 42.5938V48H1314.05V43.0625C1314.05 41.9688 1313.53 41.3438 1312.51 41.3438C1311.48 41.3438 1310.84 42.0938 1310.84 43.1875V48H1308.55ZM1320.62 48.1719C1318.78 48.1719 1317.73 46.9922 1317.73 45.0312V39.625H1320.02V44.5547C1320.02 45.6484 1320.53 46.2812 1321.55 46.2812C1322.58 46.2812 1323.23 45.5312 1323.23 44.4375V39.625H1325.51V48H1323.23V46.6172H1323.18C1322.75 47.5781 1321.89 48.1719 1320.62 48.1719ZM1326.99 50.7344V39.625H1329.27V41.0859H1329.33C1329.78 40.0703 1330.7 39.4531 1331.88 39.4531C1334.01 39.4531 1335.3 41.0781 1335.3 43.8047V43.8125C1335.3 46.5312 1334.01 48.1719 1331.91 48.1719C1330.72 48.1719 1329.77 47.5625 1329.32 46.5703H1329.27V50.7344H1326.99ZM1331.13 46.2812C1332.27 46.2812 1332.98 45.3359 1332.98 43.8125V43.8047C1332.98 42.2734 1332.27 41.3438 1331.13 41.3438C1330.02 41.3438 1329.27 42.2969 1329.27 43.8125V43.8203C1329.27 45.3281 1330.02 46.2812 1331.13 46.2812Z" fill="white"/>
<path d="M1389.71 42.7071C1390.1 42.3166 1390.1 41.6834 1389.71 41.2929L1383.34 34.9289C1382.95 34.5384 1382.32 34.5384 1381.93 34.9289C1381.54 35.3195 1381.54 35.9526 1381.93 36.3431L1387.59 42L1381.93 47.6569C1381.54 48.0474 1381.54 48.6805 1381.93 49.0711C1382.32 49.4616 1382.95 49.4616 1383.34 49.0711L1389.71 42.7071ZM1364 43H1389V41H1364V43Z" fill="white"/>
</svg>
