<svg width="150" height="52" viewBox="0 0 150 52" fill="none" xmlns="http://www.w3.org/2000/svg">
<rect width="150" height="52" rx="26" fill="#3706FD"/>
<path d="M34.0547 32.1953C31.375 32.1953 29.6484 30.9688 29.5156 28.8906L29.5078 28.7656H31.7344L31.75 28.8516C31.8984 29.7266 32.8281 30.2734 34.1172 30.2734C35.4219 30.2734 36.2422 29.7031 36.2422 28.8438V28.8359C36.2422 28.0703 35.6875 27.6875 34.2891 27.3984L33.1016 27.1641C30.875 26.7188 29.75 25.6562 29.75 23.9609V23.9531C29.75 21.8906 31.5469 20.5312 34.0469 20.5312C36.6562 20.5312 38.2578 21.8359 38.3672 23.8125L38.375 23.9609H36.1484L36.1406 23.8672C36.0234 22.9844 35.2109 22.4453 34.0469 22.4453C32.8359 22.4531 32.1094 23.0078 32.1094 23.8125V23.8203C32.1094 24.5312 32.6875 24.9453 33.9844 25.2031L35.1797 25.4453C37.5391 25.9141 38.6016 26.875 38.6016 28.6484V28.6562C38.6016 30.8203 36.8984 32.1953 34.0547 32.1953ZM39.9062 32V20.7266H42.1875V25.0703H42.2344C42.6641 24.0312 43.5469 23.4531 44.8047 23.4531C46.6172 23.4531 47.7422 24.7188 47.7422 26.7422V32H45.4609V27.2109C45.4609 26.0391 44.8828 25.3438 43.8438 25.3438C42.8359 25.3438 42.1875 26.1094 42.1875 27.2031V32H39.9062ZM53.0547 32.1719C50.5078 32.1719 48.9062 30.5391 48.9062 27.8125V27.7969C48.9062 25.1016 50.5469 23.4531 53.0469 23.4531C55.5547 23.4531 57.2031 25.0859 57.2031 27.7969V27.8125C57.2031 30.5469 55.5859 32.1719 53.0547 32.1719ZM53.0625 30.3828C54.1719 30.3828 54.8828 29.4453 54.8828 27.8125V27.7969C54.8828 26.1797 54.1562 25.2422 53.0469 25.2422C51.9453 25.2422 51.2266 26.1797 51.2266 27.7969V27.8125C51.2266 29.4531 51.9375 30.3828 53.0625 30.3828ZM58.3828 34.7344V23.625H60.6641V25.0859H60.7188C61.1719 24.0703 62.0859 23.4531 63.2734 23.4531C65.3984 23.4531 66.6953 25.0781 66.6953 27.8047V27.8125C66.6953 30.5312 65.3984 32.1719 63.3047 32.1719C62.1094 32.1719 61.1641 31.5625 60.7109 30.5703H60.6641V34.7344H58.3828ZM62.5234 30.2812C63.6562 30.2812 64.375 29.3359 64.375 27.8125V27.8047C64.375 26.2734 63.6562 25.3438 62.5234 25.3438C61.4141 25.3438 60.6562 26.2969 60.6562 27.8125V27.8203C60.6562 29.3281 61.4141 30.2812 62.5234 30.2812Z" fill="white"/>
<path d="M121.707 26.7071C122.098 26.3166 122.098 25.6834 121.707 25.2929L115.343 18.9289C114.953 18.5384 114.319 18.5384 113.929 18.9289C113.538 19.3195 113.538 19.9526 113.929 20.3431L119.586 26L113.929 31.6569C113.538 32.0474 113.538 32.6805 113.929 33.0711C114.319 33.4616 114.953 33.4616 115.343 33.0711L121.707 26.7071ZM96 27H121V25H96V27Z" fill="white"/>
</svg>
