<svg width="363" height="363" viewBox="0 0 363 363" fill="none" xmlns="http://www.w3.org/2000/svg">
<g clip-path="url(#clip0_120_267)">
<rect width="363" height="363" fill="white"/>
<rect width="363" height="363" fill="black"/>
<path d="M233.439 211.881C233.439 210.566 233.439 209.294 233.439 208.019C233.446 203.519 233.395 199.015 233.471 194.514C233.587 187.617 237.822 181.336 244.33 179.584C246.361 179.036 248.536 178.939 250.658 178.803C255.908 178.466 261.166 178.233 266.42 177.95C270.233 177.746 274.045 177.524 277.857 177.312C278.121 177.298 278.385 177.312 278.703 177.312C278.735 177.563 278.786 177.764 278.786 177.961C278.79 181.927 278.786 185.894 278.797 189.86C278.797 190.394 278.688 190.663 278.063 190.691C272.054 190.949 266.048 191.243 260.039 191.505C256.161 191.677 252.284 191.809 248.41 191.967C247.189 192.017 246.527 192.673 246.502 193.88C246.477 195.253 246.484 196.625 246.502 197.994C246.513 199.011 246.928 199.563 247.958 199.713C249.205 199.893 250.47 199.968 251.727 200.047C256.559 200.355 261.39 200.638 266.221 200.946C270.663 201.225 275.104 201.519 279.545 201.813C279.841 201.831 280.137 201.899 280.528 201.96V203.028C280.528 208.782 280.517 214.54 280.531 220.294C280.542 224.178 278.797 227.224 275.928 229.696C272.639 232.527 268.704 233.516 264.418 233.605C258.015 233.741 251.612 234.003 245.208 234.221C241.602 234.347 237.999 234.494 234.317 234.633V222.885C236.532 222.809 238.718 222.741 240.901 222.663C246.943 222.455 252.981 222.24 259.023 222.032C261.068 221.96 263.11 221.896 265.155 221.831C266.25 221.799 266.959 221.143 266.984 220.058C267.013 218.718 266.984 217.374 266.995 216.034C267.002 215.135 266.543 214.622 265.679 214.511C264.458 214.354 263.233 214.232 262.004 214.135C255.352 213.615 248.695 213.114 242.043 212.594C239.26 212.376 236.481 212.132 233.442 211.878L233.439 211.881Z" fill="white"/>
<path d="M112.661 133.513C115.516 133.348 118.306 133.19 121.092 133.029C122.743 132.932 124.395 132.839 126.042 132.71C126.621 132.663 126.87 132.832 127.047 133.416C129.595 141.746 132.171 150.07 134.744 158.393C134.795 158.554 134.878 158.705 135.04 159.081C135.217 158.561 135.337 158.246 135.438 157.924C138.047 149.425 140.659 140.926 143.25 132.42C143.427 131.836 143.72 131.649 144.324 131.621C148.497 131.409 152.667 131.169 156.838 130.9C157.564 130.854 157.77 131.076 157.77 131.785C157.752 147.587 157.755 163.391 157.759 179.193C157.759 179.691 157.795 180.142 157.054 180.16C153.961 180.232 150.871 180.336 147.648 180.432V152.442C147.554 152.42 147.46 152.399 147.366 152.377C147.258 152.675 147.135 152.968 147.045 153.273C144.298 162.141 141.548 171.009 138.816 179.881C138.625 180.5 138.347 180.794 137.631 180.798C135.828 180.809 134.025 180.902 132.225 180.998C131.596 181.031 131.286 180.869 131.076 180.21C128.384 171.611 125.656 163.022 122.931 154.43C122.826 154.097 122.682 153.775 122.353 153.459V154.351C122.353 162.997 122.338 171.643 122.375 180.293C122.378 181.213 122.104 181.464 121.215 181.45C118.392 181.407 115.57 181.432 112.665 181.432V133.513H112.661Z" fill="white"/>
<path d="M161.18 227.281C154.752 227.492 148.367 227.704 141.891 227.915C141.869 228.313 141.84 228.632 141.84 228.951C141.837 231.634 141.837 234.318 141.84 236.998C141.84 237.435 141.862 237.826 141.226 237.844C137.649 237.948 134.075 238.077 130.497 238.195C130.382 238.199 130.262 238.166 130.075 238.138C130.053 237.876 130.013 237.622 130.013 237.367C130.013 227.084 129.995 216.797 130.035 206.514C130.046 203.364 131.18 200.587 133.287 198.212C137.157 193.848 141.02 189.476 144.916 185.134C145.194 184.822 145.7 184.575 146.115 184.546C149.205 184.335 152.295 184.174 155.388 184.037C155.8 184.019 156.335 184.116 156.62 184.371C161.141 188.434 165.665 192.493 170.113 196.632C172.119 198.498 173.178 200.953 173.257 203.637C173.438 209.918 173.452 216.202 173.499 222.487C173.532 226.959 173.492 231.43 173.521 235.902C173.525 236.636 173.311 236.866 172.56 236.88C169.044 236.944 165.524 237.059 162.008 237.192C161.379 237.217 161.242 236.987 161.246 236.429C161.264 233.627 161.253 230.825 161.249 228.023C161.249 227.822 161.217 227.618 161.184 227.277L161.18 227.281ZM141.844 215.461C148.381 215.213 154.792 214.973 161.246 214.73C161.246 212.304 161.256 210.011 161.227 207.718C161.227 207.463 161.021 207.169 160.837 206.962C158.557 204.425 156.27 201.895 153.971 199.376C153.176 198.502 152.338 197.667 151.413 196.703C148.226 200.548 145.136 204.274 142.054 208.011C141.931 208.158 141.851 208.388 141.851 208.581C141.837 210.813 141.844 213.046 141.844 215.461Z" fill="white"/>
<path d="M226.684 180.139C226.684 180.558 226.684 180.884 226.684 181.207C226.684 194.772 226.695 208.341 226.677 221.906C226.67 226.862 224.263 230.502 220.14 233.107C217.564 234.737 214.698 235.354 211.652 235.432C205.668 235.59 199.687 235.809 193.71 236.059C189.507 236.235 185.775 235.167 182.801 232.118C180.542 229.803 179.332 227.002 179.328 223.755C179.317 211.53 179.324 199.305 179.328 187.079C179.328 185.829 179.36 184.575 179.35 183.324C179.35 182.848 179.505 182.633 180.018 182.604C183.682 182.414 187.343 182.199 191.003 181.999C191.235 181.984 191.47 182.017 191.802 182.035V183.131C191.802 196.191 191.802 209.251 191.802 222.311C191.802 224.106 192.25 224.547 194.014 224.493C198.433 224.354 202.849 224.214 207.268 224.074C208.71 224.028 210.152 223.963 211.597 223.942C213.26 223.917 213.99 223.225 213.986 221.534C213.979 218.614 213.91 215.694 213.91 212.773C213.903 202.967 213.91 193.156 213.921 183.349C213.921 183.084 213.986 182.816 213.997 182.55C214.066 180.72 214.066 180.763 215.945 180.684C219.276 180.54 222.608 180.333 225.94 180.153C226.146 180.143 226.352 180.153 226.688 180.153L226.684 180.139Z" fill="white"/>
<path d="M242.256 147.003C242.256 151.044 242.259 155.004 242.256 158.963C242.256 160.632 242.31 162.306 242.194 163.968C241.837 169.21 238.682 174.678 233.384 176.383C231.928 176.853 230.32 176.96 228.773 177.028C222.702 177.294 216.632 177.494 210.557 177.684C208.671 177.741 206.785 177.695 204.801 177.695C204.79 177.519 204.754 177.233 204.757 176.942C204.768 173.664 204.808 170.382 204.783 167.103C204.775 166.326 205.101 166.157 205.791 166.132C210.12 165.978 214.445 165.803 218.774 165.62C222.471 165.462 226.164 165.301 229.857 165.111C230.902 165.057 231.393 164.57 231.429 163.549C231.48 162.209 231.462 160.865 231.44 159.525C231.426 158.694 230.902 158.293 230.118 158.225C226.674 157.931 223.226 157.662 219.783 157.372C215.92 157.046 212.057 156.705 208.194 156.372C207.146 156.283 206.098 156.168 205.046 156.118C204.515 156.093 204.313 155.928 204.316 155.38C204.345 150.55 204.266 145.716 204.381 140.886C204.479 136.873 205.856 133.305 208.844 130.474C210.77 128.65 213.043 127.507 215.746 127.339C220.729 127.031 225.713 126.733 230.696 126.429C233.789 126.243 236.879 126.067 239.972 125.856C240.738 125.802 241.027 125.988 241.016 126.816C240.969 129.947 240.98 133.079 241.009 136.211C241.016 136.916 240.836 137.203 240.066 137.239C236.311 137.407 232.56 137.629 228.806 137.837C224.932 138.052 221.058 138.26 217.188 138.493C215.287 138.608 214.944 139.002 214.944 140.915C214.944 141.84 214.919 142.764 214.955 143.688C214.995 144.749 215.464 145.182 216.516 145.254C222.695 145.666 228.875 146.089 235.057 146.501C237.157 146.641 239.26 146.748 241.36 146.881C241.681 146.902 241.999 146.967 242.263 147.003H242.256Z" fill="white"/>
<path d="M81.1287 239.857C81.107 239.417 81.0709 239.037 81.0709 238.661C81.0709 231.871 81.1901 225.077 81.0131 218.295C80.9372 215.332 81.5949 212.859 83.3149 210.409C86.2817 206.184 88.9486 201.752 91.7491 197.413C91.9189 197.151 92.1213 196.911 92.5079 196.728V208.56C99.3051 208.266 105.987 207.976 112.809 207.682C112.809 207.295 112.809 206.951 112.809 206.603C112.809 200.251 112.809 193.901 112.809 187.549C112.809 186.012 112.712 186.284 114.182 186.209C117.366 186.047 120.542 185.84 123.726 185.653C123.99 185.639 124.257 185.653 124.68 185.653C124.68 186.646 124.68 187.588 124.68 188.527C124.687 197.022 124.694 205.518 124.705 214.013C124.716 220.355 124.738 226.701 124.741 233.043C124.741 234.594 124.723 236.142 124.655 237.69C124.644 237.937 124.333 238.378 124.145 238.385C120.423 238.55 116.701 238.664 112.853 238.797V220.588C111.66 220.588 110.59 220.559 109.524 220.592C105.737 220.717 101.95 220.864 98.1669 220.996C96.6347 221.05 95.1025 221.122 93.5703 221.136C92.7717 221.143 92.5152 221.426 92.5224 222.247C92.5622 227.672 92.5296 233.1 92.5585 238.528C92.5622 239.284 92.3923 239.553 91.5684 239.564C88.4137 239.614 85.2554 239.754 82.1008 239.857C81.8081 239.868 81.5118 239.857 81.1323 239.857H81.1287Z" fill="white"/>
<path d="M172.838 179.54C169.307 179.676 165.896 179.805 162.402 179.938C162.377 179.587 162.34 179.3 162.34 179.013C162.34 169.382 162.34 159.751 162.355 150.12C162.359 147.092 163.302 144.437 165.383 142.137C168.914 138.228 172.332 134.222 175.83 130.284C176.105 129.976 176.603 129.733 177.015 129.7C179.653 129.492 182.291 129.335 184.933 129.206C185.269 129.188 185.717 129.349 185.948 129.586C189.663 133.366 193.407 137.117 197.02 140.994C199.04 143.162 199.767 145.924 199.77 148.837C199.792 158.468 199.777 168.099 199.781 177.731C199.781 178.196 199.814 178.637 199.131 178.655C196.001 178.727 192.875 178.816 189.75 178.895C189.667 178.895 189.583 178.852 189.385 178.802V169.182C187.141 169.182 185.016 169.135 182.895 169.192C180.101 169.268 177.308 169.44 174.515 169.533C172.838 169.59 172.838 169.558 172.838 171.253C172.838 173.965 172.838 176.674 172.838 179.547V179.54ZM172.849 157.795C173.145 157.82 173.297 157.849 173.445 157.845C178.551 157.623 183.654 157.39 188.76 157.182C189.396 157.157 189.392 156.781 189.392 156.344C189.392 154.437 189.432 152.528 189.367 150.622C189.349 150.106 189.139 149.507 188.81 149.106C186.389 146.143 183.917 143.219 181.453 140.288C181.348 140.163 181.193 140.084 181.041 139.969C180.9 140.123 180.792 140.224 180.701 140.342C178.501 143.212 176.296 146.078 174.11 148.955C173.662 149.543 172.95 150.156 172.91 150.786C172.766 153.094 172.852 155.416 172.852 157.798L172.849 157.795Z" fill="white"/>
<path d="M247.882 176.742V125.479C251.586 125.268 255.232 125.057 259.001 124.842V125.995C259.001 131.99 259.012 137.984 258.987 143.975C258.983 144.76 259.175 144.975 260.006 144.925C263.937 144.681 267.873 144.52 271.808 144.319C274.027 144.208 276.242 144.079 278.551 143.95V123.659C282.392 123.437 286.147 123.219 289.952 123C289.973 123.434 289.999 123.695 289.999 123.957C289.999 131.621 290.006 139.285 289.984 146.945C289.984 147.365 289.872 147.845 289.648 148.196C286.157 153.689 282.638 159.167 279.125 164.645C279.021 164.81 278.883 164.961 278.623 165.29V156.609C278.002 156.645 277.478 156.677 276.954 156.698C272.596 156.881 268.241 157.064 263.883 157.243C262.622 157.297 261.357 157.379 260.096 157.379C259.272 157.379 258.969 157.626 258.976 158.508C259.019 164.173 258.99 169.837 259.008 175.506C259.008 176.154 258.868 176.512 258.134 176.527C254.856 176.595 251.579 176.692 248.301 176.774C248.186 176.774 248.07 176.756 247.882 176.742Z" fill="white"/>
<path d="M74.0317 162.632C74.0317 158.239 74.1112 153.918 74.0064 149.597C73.9233 146.089 74.6388 142.853 76.666 139.958C78.6788 137.081 81.3709 135.376 84.999 135.2C89.5919 134.978 94.1812 134.655 98.7741 134.372C101.264 134.218 103.754 134.075 106.243 133.885C106.757 133.846 106.897 134.018 106.894 134.458C106.876 137.765 106.847 141.073 106.847 144.38C106.847 144.985 106.518 145.018 106.045 145.043C101.994 145.261 97.9393 145.494 93.8885 145.734C90.9795 145.906 88.0706 146.103 85.158 146.279C83.933 146.354 83.521 146.766 83.5066 148.009C83.4957 149.023 83.4921 150.037 83.5066 151.051C83.521 152.158 83.9366 152.603 85.093 152.689C87.3406 152.854 89.5955 152.975 91.8432 153.126C95.8326 153.391 99.822 153.667 103.811 153.939C105.04 154.022 106.269 154.14 107.501 154.179C108.054 154.197 108.234 154.384 108.231 154.914C108.22 159.267 108.195 163.621 108.245 167.974C108.281 171.02 107.736 173.904 106.128 176.527C103.815 180.296 100.538 182.295 95.9591 182.349C90.1267 182.417 84.298 182.74 78.4692 182.955C77.3598 182.998 76.2469 183.052 75.1375 183.123C74.6569 183.152 74.4003 183.012 74.4039 182.485C74.4111 179.236 74.4148 175.986 74.4039 172.736C74.4039 172.216 74.6316 172.098 75.1158 172.08C80.5543 171.858 85.9927 171.614 91.4312 171.378C93.1152 171.306 94.7955 171.242 96.4794 171.167C97.7984 171.109 98.2935 170.69 98.3693 169.415C98.4344 168.315 98.4127 167.207 98.3766 166.107C98.3477 165.165 97.737 164.746 96.848 164.667C95.0521 164.509 93.2561 164.366 91.4565 164.208C88.403 163.943 85.3459 163.678 82.2924 163.409C79.687 163.18 77.0816 162.947 74.4798 162.714C74.3606 162.704 74.2449 162.675 74.0353 162.639L74.0317 162.632Z" fill="white"/>
</g>
<defs>
<clipPath id="clip0_120_267">
<rect width="363" height="363" fill="white"/>
</clipPath>
</defs>
</svg>
