<svg width="707" height="363" viewBox="0 0 707 363" fill="none" xmlns="http://www.w3.org/2000/svg">
<g clip-path="url(#clip0_635_64)">
<rect width="707" height="363" fill="black"/>
<rect width="707" height="363" fill="white"/>
<path d="M528.078 187.625C528.078 186.016 528.078 184.46 528.078 182.899C528.087 177.393 528.025 171.882 528.118 166.375C528.259 157.936 533.441 150.251 541.404 148.107C543.889 147.436 546.551 147.318 549.146 147.151C555.571 146.739 562.004 146.454 568.433 146.108C573.098 145.858 577.763 145.586 582.428 145.327C582.75 145.31 583.073 145.327 583.462 145.327C583.502 145.634 583.564 145.88 583.564 146.121C583.568 150.974 583.564 155.827 583.577 160.681C583.577 161.334 583.444 161.663 582.68 161.698C575.326 162.013 567.978 162.373 560.625 162.693C555.88 162.903 551.136 163.065 546.396 163.258C544.902 163.32 544.093 164.122 544.062 165.6C544.031 167.279 544.04 168.958 544.062 170.632C544.075 171.878 544.583 172.553 545.844 172.737C547.369 172.956 548.917 173.048 550.455 173.145C556.367 173.522 562.278 173.868 568.19 174.245C573.624 174.587 579.058 174.946 584.492 175.306C584.855 175.328 585.218 175.411 585.695 175.486V176.792C585.695 183.833 585.682 190.878 585.699 197.919C585.713 202.672 583.577 206.398 580.066 209.423C576.043 212.887 571.228 214.097 565.984 214.206C558.149 214.373 550.314 214.693 542.479 214.96C538.066 215.114 533.658 215.294 529.152 215.465V201.089C531.863 200.997 534.538 200.914 537.208 200.817C544.601 200.563 551.99 200.3 559.382 200.045C561.885 199.958 564.383 199.879 566.886 199.8C568.225 199.761 569.092 198.958 569.123 197.63C569.158 195.99 569.123 194.346 569.136 192.706C569.145 191.606 568.584 190.979 567.527 190.843C566.032 190.65 564.533 190.501 563.03 190.383C554.89 189.747 546.746 189.133 538.606 188.498C535.201 188.23 531.801 187.932 528.082 187.621L528.078 187.625Z" fill="black"/>
<path d="M131.306 153.863C134.799 153.661 138.212 153.468 141.621 153.271C143.642 153.153 145.662 153.039 147.679 152.881C148.386 152.824 148.691 153.03 148.908 153.745C152.025 163.938 155.177 174.122 158.326 184.306C158.388 184.504 158.489 184.688 158.688 185.148C158.905 184.512 159.051 184.127 159.175 183.732C162.367 173.333 165.564 162.934 168.734 152.526C168.951 151.811 169.309 151.583 170.047 151.548C175.154 151.289 180.257 150.996 185.359 150.667C186.248 150.61 186.5 150.882 186.5 151.75C186.478 171.084 186.482 190.422 186.486 209.756C186.486 210.366 186.531 210.918 185.624 210.94C181.839 211.028 178.059 211.155 174.115 211.273V177.024C174 176.998 173.885 176.972 173.77 176.945C173.637 177.309 173.487 177.669 173.377 178.041C170.016 188.892 166.651 199.743 163.309 210.598C163.074 211.357 162.734 211.716 161.858 211.72C159.652 211.734 157.446 211.848 155.244 211.966C154.474 212.005 154.094 211.808 153.838 211.001C150.544 200.48 147.205 189.971 143.872 179.458C143.743 179.05 143.566 178.655 143.164 178.269V179.361C143.164 189.94 143.146 200.519 143.191 211.102C143.195 212.229 142.859 212.536 141.771 212.518C138.318 212.466 134.865 212.496 131.31 212.496V153.863H131.306Z" fill="black"/>
<path d="M439.665 206.468C431.799 206.727 423.986 206.986 416.062 207.244C416.036 207.731 416.001 208.121 416.001 208.511C415.996 211.795 415.996 215.079 416.001 218.358C416.001 218.893 416.027 219.371 415.249 219.393C410.872 219.52 406.499 219.678 402.121 219.822C401.98 219.827 401.834 219.787 401.604 219.752C401.577 219.432 401.529 219.121 401.529 218.81C401.529 206.227 401.507 193.64 401.555 181.058C401.569 177.204 402.957 173.806 405.535 170.9C410.27 165.56 414.997 160.211 419.763 154.898C420.104 154.516 420.723 154.214 421.231 154.179C425.012 153.92 428.792 153.723 432.577 153.556C433.081 153.534 433.735 153.652 434.085 153.964C439.616 158.935 445.152 163.903 450.595 168.966C453.049 171.25 454.344 174.254 454.442 177.537C454.663 185.223 454.68 192.913 454.738 200.602C454.778 206.074 454.729 211.545 454.764 217.017C454.769 217.915 454.508 218.196 453.588 218.213C449.286 218.292 444.979 218.433 440.677 218.595C439.908 218.625 439.74 218.345 439.744 217.661C439.766 214.233 439.753 210.804 439.749 207.376C439.749 207.13 439.709 206.88 439.669 206.464L439.665 206.468ZM416.005 192.005C424.004 191.703 431.847 191.409 439.744 191.111C439.744 188.143 439.758 185.337 439.722 182.531C439.722 182.219 439.47 181.86 439.245 181.606C436.455 178.502 433.656 175.407 430.844 172.324C429.871 171.255 428.845 170.233 427.713 169.054C423.813 173.758 420.033 178.318 416.261 182.89C416.111 183.07 416.014 183.351 416.014 183.587C415.996 186.319 416.005 189.05 416.005 192.005Z" fill="black"/>
<path d="M519.814 148.786C519.814 149.299 519.814 149.698 519.814 150.093C519.814 166.691 519.827 183.294 519.805 199.892C519.796 205.955 516.851 210.41 511.806 213.597C508.654 215.592 505.147 216.346 501.42 216.442C494.098 216.635 486.78 216.902 479.467 217.209C474.325 217.424 469.757 216.118 466.118 212.387C463.355 209.555 461.874 206.126 461.869 202.154C461.856 187.196 461.865 172.237 461.869 157.278C461.869 155.748 461.909 154.214 461.896 152.684C461.896 152.101 462.086 151.837 462.714 151.802C467.197 151.57 471.676 151.307 476.155 151.061C476.438 151.044 476.726 151.083 477.133 151.105V152.447C477.133 168.427 477.133 184.407 477.133 200.387C477.133 202.584 477.681 203.123 479.839 203.057C485.246 202.886 490.649 202.715 496.057 202.544C497.821 202.487 499.585 202.409 501.354 202.382C503.388 202.352 504.281 201.505 504.276 199.436C504.268 195.863 504.184 192.29 504.184 188.717C504.175 176.717 504.184 164.714 504.197 152.714C504.197 152.39 504.276 152.061 504.29 151.737C504.374 149.496 504.374 149.549 506.673 149.453C510.75 149.277 514.826 149.023 518.903 148.804C519.155 148.791 519.407 148.804 519.818 148.804L519.814 148.786Z" fill="black"/>
<path d="M289.875 170.369C289.875 175.315 289.88 180.159 289.875 185.004C289.875 187.047 289.942 189.094 289.8 191.128C289.362 197.542 285.502 204.232 279.02 206.319C277.238 206.893 275.271 207.025 273.378 207.108C265.95 207.433 258.522 207.678 251.089 207.911C248.781 207.981 246.473 207.924 244.046 207.924C244.033 207.709 243.988 207.358 243.993 207.003C244.006 202.992 244.055 198.976 244.024 194.964C244.015 194.013 244.413 193.807 245.257 193.776C250.554 193.588 255.847 193.373 261.144 193.149C265.667 192.956 270.186 192.759 274.705 192.527C275.983 192.461 276.584 191.865 276.628 190.615C276.69 188.976 276.668 187.331 276.641 185.692C276.624 184.675 275.983 184.184 275.023 184.1C270.809 183.741 266.591 183.412 262.378 183.057C257.651 182.658 252.924 182.242 248.198 181.834C246.915 181.724 245.633 181.584 244.346 181.523C243.697 181.492 243.449 181.29 243.453 180.619C243.489 174.71 243.391 168.795 243.533 162.886C243.652 157.975 245.337 153.609 248.994 150.145C251.35 147.914 254.131 146.515 257.439 146.309C263.536 145.932 269.633 145.568 275.731 145.196C279.515 144.968 283.296 144.753 287.081 144.494C288.018 144.428 288.372 144.656 288.359 145.669C288.301 149.501 288.314 153.333 288.35 157.164C288.359 158.028 288.138 158.379 287.196 158.423C282.602 158.629 278.012 158.9 273.418 159.155C268.678 159.418 263.938 159.672 259.203 159.957C256.877 160.097 256.457 160.58 256.457 162.921C256.457 164.052 256.426 165.183 256.47 166.314C256.519 167.612 257.094 168.142 258.38 168.23C265.941 168.734 273.502 169.251 281.067 169.756C283.636 169.927 286.21 170.058 288.779 170.22C289.172 170.247 289.561 170.325 289.884 170.369H289.875Z" fill="black"/>
<path d="M341.714 221.857C341.687 221.317 341.643 220.853 341.643 220.392C341.643 212.084 341.789 203.772 341.572 195.473C341.479 191.847 342.284 188.822 344.389 185.823C348.019 180.654 351.282 175.231 354.709 169.922C354.917 169.602 355.164 169.308 355.637 169.085V183.561C363.954 183.201 372.13 182.846 380.478 182.487C380.478 182.013 380.478 181.592 380.478 181.167C380.478 173.394 380.478 165.625 380.478 157.852C380.478 155.972 380.358 156.305 382.158 156.213C386.053 156.015 389.94 155.761 393.835 155.533C394.158 155.516 394.485 155.533 395.002 155.533C395.002 156.748 395.002 157.901 395.002 159.049C395.011 169.444 395.02 179.839 395.033 190.234C395.047 197.994 395.073 205.758 395.078 213.518C395.078 215.416 395.055 217.31 394.971 219.204C394.958 219.507 394.578 220.046 394.348 220.055C389.794 220.256 385.24 220.397 380.531 220.559V198.279C379.072 198.279 377.763 198.244 376.458 198.283C371.825 198.436 367.191 198.616 362.561 198.778C360.687 198.844 358.812 198.932 356.937 198.949C355.96 198.958 355.646 199.305 355.655 200.309C355.704 206.946 355.664 213.588 355.699 220.23C355.704 221.155 355.496 221.484 354.488 221.497C350.628 221.558 346.763 221.729 342.903 221.857C342.545 221.87 342.183 221.857 341.718 221.857H341.714Z" fill="black"/>
<path d="M204.937 210.182C200.617 210.348 196.443 210.506 192.167 210.668C192.136 210.239 192.092 209.888 192.092 209.537C192.092 197.753 192.092 185.968 192.11 174.184C192.114 170.479 193.268 167.23 195.815 164.416C200.135 159.633 204.318 154.731 208.598 149.913C208.934 149.536 209.544 149.238 210.048 149.198C213.276 148.944 216.503 148.751 219.736 148.593C220.147 148.571 220.695 148.769 220.978 149.058C225.523 153.683 230.104 158.274 234.526 163.017C236.997 165.67 237.886 169.05 237.89 172.614C237.917 184.399 237.899 196.183 237.904 207.968C237.904 208.538 237.944 209.077 237.108 209.099C233.279 209.186 229.454 209.296 225.63 209.392C225.528 209.392 225.426 209.34 225.183 209.278V197.507C222.437 197.507 219.837 197.45 217.242 197.52C213.824 197.612 210.406 197.823 206.988 197.937C204.937 198.007 204.937 197.967 204.937 200.041C204.937 203.36 204.937 206.674 204.937 210.19V210.182ZM204.95 183.574C205.312 183.605 205.498 183.64 205.679 183.636C211.927 183.364 218.17 183.079 224.418 182.825C225.196 182.794 225.192 182.334 225.192 181.799C225.192 179.466 225.24 177.13 225.161 174.797C225.139 174.166 224.882 173.434 224.48 172.943C221.517 169.317 218.493 165.74 215.478 162.154C215.349 162 215.159 161.904 214.974 161.763C214.801 161.952 214.668 162.075 214.558 162.219C211.865 165.731 209.168 169.238 206.493 172.759C205.945 173.478 205.074 174.227 205.025 174.999C204.848 177.822 204.954 180.663 204.954 183.579L204.95 183.574Z" fill="black"/>
<path d="M296.76 206.758V144.034C301.292 143.775 305.753 143.516 310.365 143.253V144.665C310.365 152 310.378 159.334 310.347 166.665C310.343 167.625 310.577 167.888 311.594 167.827C316.405 167.528 321.22 167.331 326.035 167.086C328.75 166.95 331.46 166.792 334.285 166.634V141.807C338.985 141.535 343.579 141.267 348.235 141C348.262 141.53 348.293 141.851 348.293 142.171C348.293 151.548 348.302 160.926 348.275 170.299C348.275 170.812 348.138 171.4 347.864 171.829C343.593 178.55 339.286 185.253 334.988 191.957C334.86 192.158 334.692 192.343 334.374 192.746V182.123C333.613 182.167 332.972 182.206 332.331 182.233C326.999 182.456 321.671 182.68 316.338 182.899C314.795 182.965 313.248 183.066 311.704 183.066C310.696 183.066 310.325 183.368 310.334 184.447C310.387 191.378 310.351 198.309 310.374 205.245C310.374 206.039 310.201 206.477 309.304 206.495C305.293 206.578 301.283 206.696 297.273 206.797C297.131 206.797 296.99 206.775 296.76 206.758Z" fill="black"/>
<path d="M84.0388 189.493C84.0388 184.118 84.1361 178.83 84.0079 173.543C83.9062 169.251 84.7816 165.292 87.2621 161.75C89.7249 158.229 93.019 156.143 97.4582 155.928C103.078 155.656 108.693 155.261 114.313 154.915C117.36 154.727 120.406 154.551 123.453 154.319C124.08 154.271 124.253 154.481 124.248 155.02C124.226 159.067 124.191 163.113 124.191 167.16C124.191 167.901 123.789 167.94 123.209 167.971C118.253 168.238 113.292 168.523 108.335 168.817C104.776 169.028 101.217 169.269 97.6528 169.484C96.1539 169.576 95.6498 170.08 95.6321 171.601C95.6188 172.842 95.6144 174.082 95.6321 175.323C95.6498 176.678 96.1583 177.222 97.5732 177.327C100.323 177.528 103.082 177.677 105.833 177.862C110.714 178.186 115.595 178.524 120.477 178.857C121.98 178.958 123.483 179.102 124.991 179.151C125.668 179.172 125.889 179.4 125.884 180.049C125.871 185.376 125.84 190.703 125.902 196.03C125.946 199.756 125.279 203.285 123.311 206.495C120.481 211.107 116.471 213.553 110.869 213.619C103.732 213.702 96.6004 214.097 89.4685 214.36C88.1111 214.412 86.7492 214.478 85.3918 214.566C84.8037 214.601 84.4898 214.43 84.4942 213.785C84.5031 209.809 84.5075 205.833 84.4942 201.856C84.4942 201.22 84.7728 201.076 85.3653 201.054C92.0197 200.782 98.6741 200.484 105.329 200.195C107.389 200.107 109.445 200.028 111.505 199.936C113.119 199.866 113.725 199.353 113.818 197.792C113.898 196.446 113.871 195.091 113.827 193.746C113.791 192.592 113.044 192.08 111.956 191.983C109.759 191.79 107.561 191.615 105.36 191.422C101.623 191.098 97.8827 190.773 94.1465 190.444C90.9585 190.164 87.7706 189.879 84.5871 189.594C84.4412 189.581 84.2997 189.546 84.0432 189.502L84.0388 189.493Z" fill="black"/>
</g>
<defs>
<clipPath id="clip0_635_64">
<rect width="707" height="363" fill="white"/>
</clipPath>
</defs>
</svg>
