<svg width="502" height="81" viewBox="0 0 502 81" fill="none" xmlns="http://www.w3.org/2000/svg">
<path d="M444.078 46.6253C444.078 45.0163 444.078 43.46 444.078 41.8993C444.087 36.3928 444.025 30.882 444.118 25.3755C444.259 16.936 449.441 9.25065 457.404 7.10681C459.889 6.43604 462.551 6.31767 465.146 6.15107C471.571 5.73896 478.004 5.454 484.433 5.10765C489.098 4.85775 493.763 4.58594 498.428 4.32728C498.75 4.30975 499.073 4.32728 499.462 4.32728C499.502 4.63416 499.564 4.87967 499.564 5.1208C499.568 9.97404 499.564 14.8273 499.577 19.6805C499.577 20.3337 499.444 20.6626 498.68 20.6976C491.326 21.0133 483.978 21.3728 476.625 21.6928C471.88 21.9033 467.136 22.0655 462.396 22.2584C460.902 22.3198 460.093 23.122 460.062 24.5995C460.031 26.2786 460.04 27.9577 460.062 29.6325C460.075 30.8776 460.583 31.5527 461.844 31.7369C463.369 31.9561 464.917 32.0481 466.455 32.1446C472.367 32.5216 478.278 32.868 484.19 33.245C489.624 33.587 495.058 33.9465 500.492 34.306C500.855 34.3279 501.218 34.4112 501.695 34.4857V35.7922C501.695 42.8331 501.682 49.8783 501.699 56.9192C501.713 61.6716 499.577 65.3981 496.066 68.4232C492.043 71.8866 487.228 73.0966 481.984 73.2063C474.149 73.3728 466.314 73.6929 458.479 73.9603C454.066 74.1138 449.658 74.2935 445.152 74.4645V60.0889C447.863 59.9969 450.538 59.9136 453.208 59.8171C460.601 59.5628 467.99 59.2998 475.382 59.0455C477.885 58.9578 480.383 58.8789 482.886 58.8C484.225 58.7605 485.092 57.9582 485.123 56.6298C485.158 54.9902 485.123 53.3461 485.136 51.7065C485.145 50.606 484.584 49.9791 483.527 49.8432C482.032 49.6503 480.533 49.5012 479.03 49.3829C470.89 48.7472 462.746 48.1334 454.606 47.4977C451.201 47.2303 447.801 46.9321 444.082 46.6209L444.078 46.6253Z" fill="black"/>
<path d="M47.3055 12.8629C50.7985 12.6613 54.212 12.4684 57.621 12.2711C59.6416 12.1527 61.6623 12.0387 63.6785 11.8809C64.386 11.8239 64.6911 12.03 64.9077 12.7446C68.0249 22.9377 71.1775 33.122 74.3256 43.3064C74.3875 43.5036 74.4892 43.6878 74.6882 44.1482C74.9048 43.5124 75.0508 43.1266 75.1746 42.732C78.3669 32.3329 81.5637 21.9337 84.734 11.5258C84.9506 10.8112 85.3088 10.5832 86.0472 10.5481C91.154 10.2895 96.2565 9.99572 101.359 9.66691C102.248 9.60992 102.5 9.88173 102.5 10.7498C102.478 30.0838 102.482 49.4224 102.486 68.7564C102.486 69.3658 102.531 69.9182 101.624 69.9401C97.8394 70.0278 94.059 70.1549 90.115 70.2733V36.0243C90 35.998 89.8851 35.9717 89.7701 35.9454C89.6375 36.3093 89.4871 36.6688 89.3766 37.0414C86.0162 47.8923 82.6514 58.743 79.3087 69.5981C79.0744 70.3566 78.7339 70.7161 77.8584 70.7205C75.6521 70.7336 73.4457 70.8476 71.2438 70.966C70.4744 71.0054 70.0942 70.8082 69.8377 70.0015C66.5437 59.4796 63.2054 48.9708 59.8716 38.4575C59.7433 38.0498 59.5665 37.6552 59.1641 37.2694V38.3611C59.1641 48.9401 59.1464 59.519 59.1906 70.1023C59.1951 71.229 58.859 71.5359 57.7713 71.5184C54.3181 71.4658 50.8649 71.4965 47.3099 71.4965V12.8629H47.3055Z" fill="black"/>
<path d="M355.665 65.4683C347.799 65.7269 339.986 65.9856 332.062 66.2443C332.036 66.7309 332.001 67.1211 332.001 67.5113C331.996 70.795 331.996 74.0787 332.001 77.358C332.001 77.8929 332.027 78.3708 331.249 78.3927C326.872 78.5198 322.499 78.6777 318.121 78.8223C317.98 78.8267 317.834 78.7873 317.604 78.7522C317.577 78.4322 317.529 78.1209 317.529 77.8096C317.529 65.2271 317.507 52.6403 317.555 40.0577C317.569 36.204 318.957 32.8063 321.535 29.8996C326.27 24.5598 330.997 19.2111 335.763 13.8976C336.104 13.5161 336.723 13.2136 337.231 13.1786C341.012 12.9199 344.792 12.7226 348.577 12.556C349.081 12.5341 349.735 12.6525 350.085 12.9637C355.616 17.9353 361.152 22.9026 366.595 27.9662C369.049 30.2504 370.344 33.2535 370.442 36.5372C370.663 44.2228 370.68 51.9125 370.738 59.6023C370.778 65.0737 370.729 70.5451 370.764 76.0165C370.769 76.9153 370.508 77.1958 369.588 77.2134C365.286 77.2923 360.979 77.4326 356.677 77.5948C355.908 77.6255 355.74 77.3449 355.744 76.661C355.766 73.2326 355.753 69.8042 355.749 66.3758C355.749 66.1303 355.709 65.8804 355.669 65.4639L355.665 65.4683ZM332.005 51.005C340.004 50.7025 347.847 50.4088 355.744 50.1107C355.744 47.1426 355.758 44.3368 355.722 41.5307C355.722 41.2195 355.47 40.86 355.245 40.6057C352.455 37.5017 349.656 34.4065 346.844 31.3245C345.871 30.2548 344.845 29.2333 343.713 28.0539C339.813 32.7581 336.033 37.3176 332.261 41.8902C332.111 42.07 332.014 42.3506 332.014 42.5873C331.996 45.3188 332.005 48.0501 332.005 51.005Z" fill="black"/>
<path d="M435.814 7.78613C435.814 8.29908 435.814 8.69803 435.814 9.0926C435.814 25.6909 435.827 42.2936 435.805 58.8921C435.796 64.9553 432.851 69.4096 427.806 72.5969C424.654 74.5916 421.147 75.3457 417.42 75.4422C410.098 75.6351 402.78 75.9025 395.467 76.2094C390.325 76.4242 385.757 75.1177 382.118 71.3868C379.355 68.5547 377.874 65.1263 377.869 61.1543C377.856 46.1956 377.865 31.2369 377.869 16.2782C377.869 14.7481 377.909 13.2137 377.896 11.6836C377.896 11.1005 378.086 10.8375 378.714 10.8024C383.197 10.5701 387.676 10.307 392.155 10.0615C392.438 10.044 392.726 10.0834 393.133 10.1053V11.4469C393.133 27.427 393.133 43.4072 393.133 59.3875C393.133 61.5839 393.681 62.1232 395.839 62.0574C401.246 61.8864 406.649 61.7154 412.057 61.5445C413.821 61.4875 415.585 61.4085 417.354 61.3822C419.388 61.3516 420.281 60.5054 420.276 58.4361C420.268 54.863 420.184 51.29 420.184 47.7169C420.175 35.7174 420.184 23.7137 420.197 11.7143C420.197 11.3899 420.276 11.0611 420.29 10.7367C420.374 8.49636 420.374 8.54897 422.673 8.45252C426.75 8.27716 430.826 8.02288 434.903 7.80367C435.155 7.79052 435.407 7.80367 435.818 7.80367L435.814 7.78613Z" fill="black"/>
<path d="M205.875 29.3693C205.875 34.3146 205.88 39.1591 205.875 44.0035C205.875 46.0465 205.942 48.0939 205.8 50.1282C205.362 56.5421 201.502 63.2323 195.02 65.3192C193.238 65.8935 191.271 66.025 189.378 66.1083C181.95 66.4327 174.522 66.6782 167.089 66.9106C164.781 66.9808 162.473 66.9238 160.046 66.9238C160.033 66.7089 159.988 66.3582 159.993 66.0031C160.006 61.9916 160.055 57.9757 160.024 53.9643C160.015 53.0129 160.413 52.8069 161.257 52.7762C166.554 52.5877 171.847 52.3728 177.144 52.1492C181.667 51.9563 186.186 51.759 190.705 51.5267C191.983 51.4609 192.584 50.8647 192.628 49.6152C192.69 47.9755 192.668 46.3315 192.641 44.6918C192.624 43.6748 191.983 43.1837 191.023 43.1004C186.809 42.7409 182.591 42.4121 178.378 42.057C173.651 41.6581 168.924 41.2416 164.198 40.8338C162.915 40.7242 161.633 40.5839 160.346 40.5226C159.697 40.4919 159.449 40.2902 159.453 39.6194C159.489 33.7096 159.391 27.7954 159.533 21.8856C159.652 16.9754 161.337 12.6088 164.994 9.14532C167.35 6.9138 170.131 5.51526 173.439 5.3092C179.536 4.93217 185.633 4.56829 191.731 4.19563C195.515 3.96766 199.296 3.75283 203.081 3.49417C204.018 3.42841 204.372 3.65638 204.359 4.66912C204.301 8.50085 204.314 12.3326 204.35 16.1643C204.359 17.028 204.138 17.3787 203.196 17.4226C198.602 17.6286 194.012 17.9004 189.418 18.1547C184.678 18.4178 179.938 18.672 175.203 18.957C172.877 19.0973 172.457 19.5796 172.457 21.9207C172.457 23.0518 172.426 24.1829 172.47 25.314C172.519 26.6117 173.094 27.1422 174.38 27.2299C181.941 27.734 189.502 28.2514 197.067 28.7555C199.636 28.9265 202.21 29.0581 204.779 29.2203C205.172 29.2466 205.561 29.3255 205.884 29.3693H205.875Z" fill="black"/>
<path d="M257.714 80.8565C257.687 80.3173 257.643 79.8525 257.643 79.3922C257.643 71.0843 257.789 62.772 257.572 54.4728C257.479 50.8471 258.284 47.8221 260.389 44.8233C264.019 39.6543 267.282 34.2311 270.709 28.9219C270.917 28.6019 271.164 28.3081 271.637 28.0845V42.5609C279.954 42.2014 288.13 41.8463 296.478 41.4868C296.478 41.0133 296.478 40.5925 296.478 40.1672C296.478 32.3941 296.478 24.6255 296.478 16.8524C296.478 14.9716 296.358 15.3048 298.158 15.2127C302.053 15.0154 305.94 14.7612 309.835 14.5332C310.158 14.5156 310.485 14.5332 311.002 14.5332C311.002 15.7476 311.002 16.9006 311.002 18.0493C311.011 28.444 311.02 38.8388 311.033 49.2338C311.047 56.9937 311.073 64.758 311.078 72.5179C311.078 74.4162 311.055 76.3102 310.971 78.2041C310.958 78.5066 310.578 79.0459 310.348 79.0546C305.794 79.2563 301.24 79.3966 296.531 79.5588V57.2786C295.072 57.2786 293.763 57.2436 292.458 57.283C287.825 57.4365 283.191 57.6162 278.561 57.7784C276.687 57.8442 274.812 57.9319 272.937 57.9494C271.96 57.9582 271.646 58.3045 271.655 59.3085C271.704 65.9461 271.664 72.588 271.699 79.23C271.704 80.1551 271.496 80.4839 270.488 80.497C266.628 80.5584 262.763 80.7294 258.903 80.8565C258.545 80.8697 258.183 80.8565 257.718 80.8565H257.714Z" fill="black"/>
<path d="M120.937 69.1816C116.617 69.3482 112.443 69.506 108.167 69.6683C108.136 69.2386 108.092 68.8879 108.092 68.5371C108.092 56.7526 108.092 44.968 108.11 33.1836C108.114 29.479 109.268 26.2303 111.815 23.4157C116.135 18.6326 120.318 13.7312 124.598 8.91302C124.934 8.53598 125.544 8.23786 126.048 8.19841C129.276 7.94413 132.503 7.75122 135.736 7.5934C136.147 7.57148 136.695 7.76876 136.978 8.05811C141.523 12.6834 146.104 17.2736 150.526 22.0172C152.997 24.6696 153.886 28.0498 153.89 31.6141C153.917 43.3986 153.899 55.1831 153.904 66.9676C153.904 67.5376 153.944 68.0768 153.108 68.0987C149.279 68.1864 145.454 68.296 141.63 68.3925C141.528 68.3925 141.426 68.3399 141.183 68.2785V56.5071C138.437 56.5071 135.837 56.4501 133.242 56.5202C129.824 56.6123 126.406 56.8227 122.988 56.9367C120.937 57.0069 120.937 56.9674 120.937 59.0411C120.937 62.3599 120.937 65.6743 120.937 69.1904V69.1816ZM120.95 42.5744C121.312 42.6051 121.498 42.6402 121.679 42.6358C127.927 42.364 134.17 42.079 140.418 41.8247C141.196 41.794 141.192 41.3337 141.192 40.7988C141.192 38.4665 141.24 36.1297 141.161 33.7974C141.139 33.166 140.882 32.4339 140.48 31.9429C137.517 28.3172 134.493 24.7397 131.478 21.1535C131.349 21.0001 131.159 20.9036 130.974 20.7633C130.801 20.9518 130.668 21.0746 130.558 21.2193C127.865 24.731 125.168 28.2383 122.493 31.7587C121.945 32.4777 121.074 33.2274 121.025 33.999C120.848 36.8224 120.954 39.6633 120.954 42.5788L120.95 42.5744Z" fill="black"/>
<path d="M212.76 65.7576V3.03382C217.292 2.77516 221.753 2.51649 226.365 2.25344V3.66513C226.365 10.9998 226.378 18.3344 226.347 25.6647C226.343 26.6248 226.577 26.8879 227.594 26.8265C232.405 26.5284 237.22 26.3311 242.035 26.0856C244.75 25.9497 247.46 25.7919 250.285 25.634V0.806681C254.985 0.534864 259.579 0.267432 264.235 0C264.262 0.53048 264.293 0.850522 264.293 1.17056C264.293 10.5482 264.302 19.9259 264.275 29.2992C264.275 29.8121 264.138 30.3996 263.864 30.8292C259.593 37.5501 255.286 44.2534 250.988 50.9568C250.86 51.1584 250.692 51.3426 250.374 51.7459V41.1232C249.613 41.167 248.972 41.2065 248.331 41.2328C242.999 41.4564 237.671 41.68 232.338 41.8992C230.795 41.9649 229.248 42.0658 227.704 42.0658C226.696 42.0658 226.325 42.3683 226.334 43.4468C226.387 50.3781 226.351 57.3094 226.374 64.2451C226.374 65.0386 226.201 65.477 225.304 65.4946C221.293 65.5779 217.283 65.6962 213.273 65.7971C213.131 65.7971 212.99 65.7751 212.76 65.7576Z" fill="black"/>
<path d="M0.0388023 48.4929C0.0388023 43.1177 0.136077 37.8305 0.00785144 32.5432C-0.0938441 28.2511 0.781624 24.2923 3.26211 20.7499C5.72492 17.2294 9.01898 15.1426 13.4582 14.9278C19.078 14.656 24.6934 14.2614 30.3132 13.915C33.3596 13.7265 36.4061 13.5511 39.4525 13.3188C40.0804 13.2706 40.2528 13.481 40.2484 14.0203C40.2263 18.0668 40.1909 22.1134 40.1909 26.1599C40.1909 26.9008 39.7886 26.9403 39.2093 26.971C34.2528 27.2384 29.2918 27.5234 24.3352 27.8171C20.7759 28.0276 17.2165 28.2687 13.6528 28.4835C12.1539 28.5756 11.6498 29.0797 11.6321 30.601C11.6188 31.8418 11.6144 33.0825 11.6321 34.3232C11.6498 35.6779 12.1583 36.2215 13.5732 36.3267C16.3234 36.5284 19.0824 36.6775 21.8326 36.8616C26.714 37.186 31.5954 37.5236 36.4768 37.8568C37.9801 37.9576 39.4835 38.1023 40.9912 38.1505C41.6677 38.1724 41.8888 38.4004 41.8844 39.0493C41.8711 44.3762 41.8402 49.7029 41.9021 55.0297C41.9463 58.7562 41.2786 62.2854 39.311 65.4946C36.4812 70.1067 32.4709 72.553 26.8688 72.6188C19.7324 72.7021 12.6004 73.0967 5.46847 73.3597C4.11105 73.4123 2.74921 73.4781 1.3918 73.5658C0.803731 73.6008 0.489801 73.4299 0.494223 72.7854C0.503066 68.809 0.507487 64.8326 0.494223 60.8562C0.494223 60.2205 0.77278 60.0758 1.36527 60.0539C8.0197 59.7821 14.6741 59.4839 21.3286 59.1946C23.389 59.1069 25.445 59.028 27.5055 58.9359C29.1194 58.8658 29.7251 58.3528 29.818 56.7921C29.8975 55.4461 29.871 54.0914 29.8268 52.7455C29.7914 51.5925 29.0442 51.0795 27.9565 50.9831C25.759 50.7902 23.5615 50.6148 21.3595 50.4219C17.6233 50.0975 13.8827 49.7731 10.1465 49.4443C6.95853 49.1637 3.77059 48.8787 0.587075 48.5937C0.441164 48.5806 0.299674 48.5455 0.043224 48.5017L0.0388023 48.4929Z" fill="black"/>
</svg>
