<svg width="196" height="51" viewBox="0 0 196 51" fill="none" xmlns="http://www.w3.org/2000/svg">
<path d="M37.2883 7.99C35.2393 5.77893 34.1101 2.93939 34.111 0H24.8489V35.1333C24.7774 37.0346 23.9282 38.8354 22.4802 40.1567C21.0321 41.4779 19.0981 42.2164 17.0855 42.2167C12.8291 42.2167 9.29209 38.93 9.29209 34.85C9.29209 29.9767 14.2679 26.3217 19.3935 27.8233V18.87C9.0523 17.5667 0 25.16 0 34.85C0 44.285 8.27296 51 17.0555 51C26.4675 51 34.111 43.775 34.111 34.85V17.0283C37.8668 19.5779 42.376 20.9458 47 20.9383V12.1833C47 12.1833 41.3648 12.4383 37.2883 7.99Z" fill="#F0F0F0"/>
<path d="M95 17.85C92.9313 17.85 90.9473 18.656 89.4846 20.0906C88.0218 21.5253 87.2 23.4711 87.2 25.5C87.2 27.5289 88.0218 29.4747 89.4846 30.9094C90.9473 32.344 92.9313 33.15 95 33.15C97.0687 33.15 99.0526 32.344 100.515 30.9094C101.978 29.4747 102.8 27.5289 102.8 25.5C102.8 23.4711 101.978 21.5253 100.515 20.0906C99.0526 18.656 97.0687 17.85 95 17.85ZM95 12.75C98.4478 12.75 101.754 14.0933 104.192 16.4844C106.63 18.8755 108 22.1185 108 25.5C108 28.8815 106.63 32.1245 104.192 34.5156C101.754 36.9067 98.4478 38.25 95 38.25C91.5522 38.25 88.2456 36.9067 85.8076 34.5156C83.3696 32.1245 82 28.8815 82 25.5C82 22.1185 83.3696 18.8755 85.8076 16.4844C88.2456 14.0933 91.5522 12.75 95 12.75ZM111.9 12.1125C111.9 12.9579 111.558 13.7686 110.948 14.3664C110.339 14.9642 109.512 15.3 108.65 15.3C107.788 15.3 106.961 14.9642 106.352 14.3664C105.742 13.7686 105.4 12.9579 105.4 12.1125C105.4 11.2671 105.742 10.4564 106.352 9.8586C106.961 9.26083 107.788 8.925 108.65 8.925C109.512 8.925 110.339 9.26083 110.948 9.8586C111.558 10.4564 111.9 11.2671 111.9 12.1125ZM95 5.1C88.5676 5.1 87.5172 5.11785 84.5246 5.2479C82.4862 5.34225 81.1186 5.61 79.8498 6.0945C78.788 6.47684 77.8281 7.08967 77.0418 7.88715C76.228 8.65827 75.6023 9.59969 75.2114 10.6411C74.7174 11.8906 74.4444 13.2294 74.3508 15.2261C74.2156 18.0413 74.1974 19.0255 74.1974 25.5C74.1974 31.8112 74.2156 32.8389 74.3482 35.7739C74.4444 37.7706 74.7174 39.1144 75.2088 40.3563C75.6508 41.4655 76.1708 42.2637 77.034 43.1103C77.9102 43.9671 78.724 44.4796 79.842 44.9029C81.1264 45.39 82.494 45.6603 84.522 45.7521C87.3924 45.8847 88.396 45.9 94.9974 45.9C101.432 45.9 102.48 45.8821 105.473 45.7521C107.506 45.6577 108.874 45.39 110.145 44.9081C111.206 44.5238 112.165 43.9113 112.953 43.1154C113.829 42.2586 114.352 41.4604 114.783 40.3614C115.277 39.1068 115.553 37.7655 115.647 35.7714C115.782 32.9587 115.797 31.9719 115.797 25.5C115.797 19.1913 115.779 18.1611 115.647 15.2261C115.55 13.2319 115.275 11.8855 114.783 10.6411C114.391 9.60079 113.767 8.65975 112.956 7.88715C112.17 7.08861 111.21 6.47487 110.148 6.09195C108.874 5.60745 107.506 5.3397 105.473 5.2479C102.605 5.1153 101.604 5.1 95 5.1ZM95 0C102.064 0 102.946 0.0254999 105.72 0.153C108.486 0.2805 110.374 0.70635 112.03 1.33875C113.746 1.98645 115.192 2.86365 116.637 4.2789C117.959 5.55363 118.982 7.0956 119.635 8.7975C120.277 10.4218 120.714 12.2731 120.844 14.9889C120.966 17.7072 121 18.5716 121 25.5C121 32.4283 120.974 33.2928 120.844 36.0111C120.714 38.7268 120.277 40.5756 119.635 42.2025C118.984 43.9053 117.961 45.4476 116.637 46.7211C115.337 48.0173 113.765 49.0206 112.03 49.6613C110.374 50.2911 108.486 50.7195 105.72 50.847C102.946 50.9669 102.064 51 95 51C87.9358 51 87.0544 50.9745 84.2802 50.847C81.5138 50.7195 79.6288 50.2911 77.97 49.6613C76.234 49.0224 74.6616 48.0189 73.3628 46.7211C72.0405 45.4465 71.0175 43.9045 70.365 42.2025C69.7202 40.5781 69.286 38.7268 69.156 36.0111C69.0312 33.2928 69 32.4283 69 25.5C69 18.5716 69.026 17.7072 69.156 14.9889C69.286 12.2706 69.7202 10.4244 70.365 8.7975C71.0156 7.09456 72.0389 5.55217 73.3628 4.2789C74.6619 2.98154 76.2343 1.97811 77.97 1.33875C79.6262 0.70635 81.5112 0.2805 84.2802 0.153C87.0544 0.0331499 87.9358 0 95 0Z" fill="#F0F0F0"/>
<path d="M164.2 33.2143L177.953 25.5L164.2 17.7857V33.2143ZM194.834 13.08C195.179 14.2886 195.417 15.9086 195.576 17.9657C195.762 20.0229 195.841 21.7971 195.841 23.34L196 25.5C196 31.1314 195.576 35.2714 194.834 37.92C194.172 40.2343 192.635 41.7257 190.25 42.3686C189.004 42.7029 186.725 42.9343 183.227 43.0886C179.782 43.2686 176.629 43.3457 173.714 43.3457L169.5 43.5C158.397 43.5 151.48 43.0886 148.751 42.3686C146.366 41.7257 144.829 40.2343 144.166 37.92C143.822 36.7114 143.583 35.0914 143.424 33.0343C143.239 30.9771 143.159 29.2029 143.159 27.66L143 25.5C143 19.8686 143.424 15.7286 144.166 13.08C144.829 10.7657 146.366 9.27429 148.751 8.63143C149.996 8.29714 152.275 8.06571 155.773 7.91143C159.218 7.73143 162.372 7.65429 165.287 7.65429L169.5 7.5C180.604 7.5 187.52 7.91143 190.25 8.63143C192.635 9.27429 194.172 10.7657 194.834 13.08Z" fill="white"/>
</svg>
